#define ufoicon_width 32
#define ufoicon_height 32
static unsigned char ufoicon_bits[] = {
   0x00, 0x00, 0x00, 0x00, 0x00, 0x00, 0x00, 0x00, 0x00, 0x00, 0x00, 0x00,
   0x00, 0x00, 0x00, 0x00, 0x06, 0xf3, 0x8f, 0x0f, 0x06, 0xf3, 0xcf, 0x3f,
   0x06, 0x33, 0xe0, 0x30, 0x06, 0x33, 0x60, 0x70, 0x06, 0xf3, 0x67, 0x60,
   0x06, 0xf3, 0x67, 0x60, 0x06, 0x73, 0x60, 0x60, 0x06, 0x33, 0x60, 0x60,
   0x8e, 0x33, 0xe0, 0x30, 0xfc, 0x31, 0xc0, 0x3f, 0xf8, 0x30, 0x80, 0x1f,
   0x00, 0x00, 0x00, 0x00, 0x00, 0x00, 0x00, 0x00, 0x00, 0x00, 0x00, 0x00,
   0x00, 0x00, 0x00, 0x00, 0x00, 0x00, 0x00, 0x00, 0x00, 0x00, 0x00, 0x00,
   0x00, 0x00, 0x00, 0x00, 0x00, 0x00, 0x00, 0x00, 0x00, 0x00, 0x00, 0x00,
   0x00, 0x00, 0x00, 0x00, 0x00, 0x00, 0x00, 0x00, 0x00, 0x00, 0x00, 0x00,
   0x00, 0x00, 0x00, 0x00, 0x00, 0x00, 0x00, 0x00, 0x00, 0x00, 0x00, 0x00,
   0x00, 0x00, 0x00, 0x00, 0x00, 0x00, 0x00, 0x00 };
