# Exported from Wings 3D 0.98.36
mtllib head.mtl
o Polygon_sep8
#109 vertices, 211 faces
v -3.45863435 83.91868274 -4.03673094
v -2.94025935 94.17893274 4.81586366
v 1.09055258 91.56024466 -0.97563634
v -1.94372781 84.24936966 -1.38229287
v -5.30869742 85.27718274 0.25773866
v -6.92638435 91.56024466 -0.97563634
v -2.91791588 93.94208813 -3.88479287
v -3.22625935 87.83330774 -5.73932441
v -5.42041588 90.26877620 -4.13951134
v -0.41541588 90.26877620 -4.13951134
v -0.19197781 88.26677620 -3.90713634
v 9.8490654e-2 94.32193274 3.13561366
v -1.72922781 85.26824466 3.42608213
v -8.9197418e-2 85.50955774 -0.29191787
v 0.32192758 88.66002620 3.83273866
v -5.93432242 94.32193274 3.13561366
v -4.10660395 85.26824466 3.42608213
v -6.15775935 88.66002620 3.83273866
v -2.37719742 83.91868274 -4.03673094
v 3.5927582e-2 93.58011966 -2.87932441
v -5.87175935 93.58011966 -2.87932441
v -3.12347895 89.47333813 -4.40763634
v -3.32904088 86.63568274 -5.01538634
v -3.89210395 84.24936966 -1.38229287
v -2.84194742 86.72505774 4.76223866
v -2.88216588 95.61786966 2.08992559
v -2.10907242 89.34374466 -3.67476134
v -5.64385395 88.26677620 -3.90713634
v -3.73569742 89.34374466 -3.67476134
v -2.10460281 87.15852620 -4.83216787
v -2.71235281 89.47333813 -4.40763634
v -2.60957242 87.83330774 -5.73932441
v -1.01422781 89.86211966 -3.88032441
v 0.14764719 89.31693274 -2.96869941
v -2.88216588 91.92221313 5.76323866
v -2.45316588 84.41024466 -4.55063634
v -0.52713435 85.27718274 0.25773866
v -5.74663435 85.50955774 -0.29191787
v -4.19597895 86.05921313 -4.33613634
v -1.63985281 86.05921313 -4.33613634
v -2.69447781 86.16646313 -4.77854287
v -3.43182242 85.55871313 -4.80088634
v -0.51819742 92.64168274 -2.83463634
v 0.17892758 94.61240120 0.23092559
v -6.01475935 94.61240120 0.23092559
v -5.31763435 92.64168274 -2.83463634
v -2.92685395 92.73105774 -3.63901134
v -3.73122895 87.15852620 -4.83216787
v -4.83054088 89.86211966 -3.88032441
v -5.98347895 89.31693274 -2.96869941
v 0.78667758 92.14118274 3.73889520
v -6.62250935 92.14118274 3.73889520
v -2.50679088 86.63568274 -5.01538634
v -4.28982242 84.67390120 -3.77307441
v -2.87769742 95.15311966 -1.85151134
v -1.00975935 89.11583813 -3.73732441
v -4.83500935 89.11583813 -3.73732441
v -2.6634346e-2 87.25683813 1.87542559
v 0.85370912 89.43311966 1.29895713
v -5.80919742 87.25683813 1.87542559
v -6.68954088 89.43311966 1.29895713
v 0.67049065 89.71465120 8.7925591e-2
v 0.50067758 87.25683813 0.15942559
v -6.50632242 89.71465120 8.7925591e-2
v -6.33650935 87.25683813 0.15942559
v -1.54600935 84.67390120 -3.77307441
v -3.38266588 84.41024466 -4.55063634
v -2.32804088 85.32633813 -4.51041787
v -3.50779088 85.32633813 -4.51041787
v -2.40400935 85.55871313 -4.80088634
v 0.54983412 91.27871313 -1.61913634
v -3.13688435 86.25136966 -4.81429287
v -2.44422781 90.01405774 -4.54616787
v -2.71682242 87.45793274 -5.51141787
v -3.39160395 90.01405774 -4.54616787
v -6.38566588 91.27871313 -1.61913634
v -5.28188435 89.33480774 -3.47366787
v -3.38713435 88.62874466 -4.26463634
v -0.56735281 89.33480774 -3.47366787
v -2.44869742 88.62874466 -4.26463634
v -1.62197781 89.89786966 -3.92501134
v -2.94472895 89.12924466 5.55767559
v -4.22279088 89.89786966 -3.92501134
v -2.91791588 86.10836966 -2.51735594
v -1.65772781 90.30005774 -4.32719941
v -4.17810395 90.30005774 -4.32719941
v -0.41988435 83.35115120 1.28555059
v -1.59963435 89.12030774 -3.78201134
v -4.24513435 89.12030774 -3.78201134
v -3.11900935 87.45793274 -5.51141787
v -3.13688435 86.16646313 -4.77854287
v -5.44722895 83.35115120 1.28555059
v -4.22725935 89.62527620 -3.97416787
v -1.61304088 89.62527620 -3.97416787
v -1.00975935 89.61186966 -3.92948094
v -4.83054088 89.61186966 -3.92948094
v -0.94272781 85.70171313 -3.82669941
v -4.89310395 85.70171313 -3.82669941
v -2.09119742 82.79702620 -1.03819941
v 0.10742758 87.73946313 -2.70057441
v -5.94325935 87.73946313 -2.70057441
v -3.74463435 82.79702620 -1.04266787
v -2.69894742 86.25136966 -4.81429287
v -1.30022781 88.37849466 -4.10376134
v -4.53560395 88.37849466 -4.10376134
v -4.10660395 83.84718274 3.87295713
v 0.90286565 92.10096313 1.16489520
v -6.73869742 92.10096313 1.16489520
v -1.72922781 83.85165120 3.87742559
vt 4.3137000e-2 0.55686300
vt 5.0980000e-2 0.13333300
vt 5.8824000e-2 0.37254900
vt 7.8431000e-2 0.27058800
vt 0.14117600 0.30980400
vt 0.14117600 0.37647100
vt 0.14902000 0.42352900
vt 0.16078400 0.58039200
vt 0.16862700 0.36470600
vt 0.16862700 0.38823500
vt 0.16862700 0.40000000
vt 0.17647100 0.16078400
vt 0.20000000 0.36470600
vt 0.20392200 0.38823500
vt 0.20392200 0.40000000
vt 0.20784300 0.12549000
vt 0.20784300 0.20392100
vt 0.21176500 0.32156900
vt 0.22352900 0.37254900
vt 0.22745100 0.42352900
vt 0.24313700 7.8430000e-3
vt 0.24313700 7.4510000e-2
vt 0.24313700 0.25098000
vt 0.26274500 0.10588200
vt 0.26274500 0.40784300
vt 0.27058800 0.14902000
vt 0.27451000 0.16470600
vt 0.27843100 0.12941200
vt 0.27843100 0.33333300
vt 0.28235300 0.22745100
vt 0.29019600 0.27843100
vt 0.29411800 0.19607800
vt 0.29411800 0.20784300
vt 0.29411800 0.26666700
vt 0.29411800 0.38431400
vt 0.30588200 0.20392100
vt 0.30588200 0.58823500
vt 0.31764700 0.26666700
vt 0.31764700 0.38431400
vt 0.31764700 0.63137300
vt 0.31764700 0.73333300
vt 0.31764700 0.82745100
vt 0.32156900 0.19607800
vt 0.32156900 0.20784300
vt 0.32156900 0.27843100
vt 0.32941200 0.22745100
vt 0.33333300 0.12941200
vt 0.33725500 0.33333300
vt 0.34117600 0.16470600
vt 0.34509800 0.10588200
vt 0.34509800 0.14902000
vt 0.34509800 0.40784300
vt 0.36470600 7.8430000e-3
vt 0.36470600 7.4510000e-2
vt 0.36470600 0.25098000
vt 0.36470600 0.90196100
vt 0.38431400 0.37647100
vt 0.38823500 0.42352900
vt 0.40000000 0.20392100
vt 0.40392200 0.12941200
vt 0.40392200 0.32156900
vt 0.41176500 0.36470600
vt 0.41176500 0.38823500
vt 0.41176500 0.40000000
vt 0.43137300 0.16078400
vt 0.44705900 0.36470600
vt 0.44705900 0.38823500
vt 0.44705900 0.40000000
vt 0.44705900 0.61176500
vt 0.45098000 0.57647100
vt 0.45882400 0.71764700
vt 0.46666700 0.42352900
vt 0.47058800 0.30588200
vt 0.47451000 0.37647100
vt 0.51764700 0.80000000
vt 0.51764700 0.94902000
vt 0.52156900 0.26666700
vt 0.54902000 0.37254900
vt 0.55686300 0.59215700
vt 0.56078400 0.13333300
vt 0.56862700 0.54902000
vt 0.58823500 0.65490200
vt 0.63921600 0.76078400
vt 0.65490200 7.8430000e-3
vt 0.65490200 9.4118000e-2
vt 0.67451000 0.52549000
vt 0.67843100 0.25882400
vt 0.68627500 0.41568600
vt 0.69019600 0.58039200
vt 0.73333300 0.90588200
vt 0.78823500 0.24705900
vt 0.81960800 0.70980400
vt 0.86666700 0.56078400
vt 0.87843100 7.8430000e-3
vt 0.87843100 6.6667000e-2
vt 0.87843100 0.87451000
vt 0.98431400 0.75686300
vt 0.98431400 0.97254900
vt 0.99215700 7.8430000e-3
vt 0.99215700 6.6667000e-2
vn -0.25561701 -0.90653118 -0.33594816
vn -2.4759431e-3 0.68652117 0.72710560
vn 0.96935432 -5.7394607e-2 -0.23886829
vn 0.49595564 -0.76890278 -0.40350529
vn -0.89881422 -0.40265221 0.17321717
vn -0.96935432 -5.7394607e-2 -0.23886829
vn 3.8883038e-4 0.40733858 -0.91327714
vn -0.53365338 -8.9073125e-2 -0.84099944
vn -0.50374134 -0.10845831 -0.85701894
vn 0.50224195 -0.10971607 -0.85773854
vn 0.57944802 0.14204823 -0.80253492
vn 0.65458697 0.60771294 0.44966753
vn 0.69601717 -0.24307956 0.67562743
vn 0.82396103 -0.56596645 -2.7752507e-2
vn 0.72798945 -0.28223699 0.62479888
vn -0.65521183 0.60616354 0.45084723
vn -0.62205255 -0.16658522 0.76504901
vn -0.72549929 -0.28258631 0.62753148
vn 0.38296802 -0.85958471 -0.33830404
vn 0.61822245 0.20592576 -0.75854834
vn -0.61770927 0.20828107 -0.75832332
vn -0.42382744 0.12317181 -0.89732882
vn -0.14989877 -0.17508889 -0.97307463
vn -0.60363438 -0.71929257 -0.34386586
vn 5.7025838e-3 -0.43840522 0.89875933
vn 2.5012623e-3 0.98717352 0.15963141
vn 0.22462816 -0.13053163 -0.96566230
vn -0.58026893 0.14059349 -0.80219788
vn -0.22052496 -0.12953566 -0.96674157
vn 0.37137567 -0.11811092 -0.92093970
vn 0.58976416 7.5399419e-2 -0.80404798
vn 0.53567843 0.17467402 -0.82615835
vn 0.22891912 -0.36767124 -0.90134005
vn 0.91738934 -4.7791581e-2 -0.39511108
vn -7.5743360e-4 0.17464646 0.98463092
vn 0.24790273 -0.36573493 -0.89709654
vn 0.89711312 -0.40608169 0.17402791
vn -0.82396103 -0.56596645 -2.7752507e-2
vn -0.49430826 -0.22904342 -0.83856929
vn 0.49447763 -0.22934117 -0.83838804
vn 0.13156804 0.62377356 -0.77045207
vn -0.24485426 -0.22479367 -0.94314060
vn 0.54296683 5.4775973e-2 -0.83796576
vn 0.71799891 0.69187219 -7.6094911e-2
vn -0.71533438 0.69458383 -7.6485410e-2
vn -0.54393478 5.4394506e-2 -0.83736264
vn -4.9161536e-4 0.17442459 -0.98467041
vn -0.44498481 -5.0698315e-2 -0.89410189
vn -0.22618001 -0.36885279 -0.90154879
vn -0.91800031 -4.7496438e-2 -0.39372518
vn 0.88624438 0.11334327 0.44913717
vn -0.88486980 0.11358898 0.45177758
vn 0.22364144 -0.22466105 -0.94842602
vn -0.71287658 -0.54062533 -0.44668919
vn 2.8261370e-3 0.94599670 -0.32416394
vn 0.23501440 4.2976733e-2 -0.97104131
vn -0.23380130 4.2679839e-2 -0.97134720
vn 0.90723412 -0.38703030 0.16472340
vn 0.97640184 -0.21575028 -9.5533824e-3
vn -0.90723412 -0.38703030 0.16472340
vn -0.97640184 -0.21575028 -9.5533824e-3
vn 0.95578242 -0.24607947 -0.16101199
vn 0.96987752 -0.22393371 9.5871227e-2
vn -0.95578242 -0.24607947 -0.16101199
vn -0.96987752 -0.22393371 9.5871227e-2
vn 0.71287658 -0.54062533 -0.44668919
vn -0.37038697 -0.35318606 -0.85911181
vn 0.42044589 -0.34196450 -0.84040795
vn -0.32252618 -0.36593947 -0.87296344
vn 0.24953678 -0.42169514 -0.87172507
vn 0.85568363 -0.11764870 -0.50394872
vn -3.2846778e-2 -0.85418929 -0.51892364
vn 0.25757589 -0.25760597 -0.93128611
vn 0.12809987 -0.66210750 -0.73837937
vn -0.30346139 -0.25599706 -0.91781081
vn -0.85568363 -0.11764870 -0.50394872
vn -0.51057707 -7.4925259e-2 -0.85656130
vn -0.59407251 0.40815263 -0.69317334
vn 0.51161057 -7.3430290e-2 -0.85607395
vn 0.59507827 0.40917171 -0.69170829
vn 8.2962670e-2 -0.29334756 -0.95239929
vn -1.7308721e-3 -0.19658691 0.98048488
vn -8.1187911e-2 -0.29126230 -0.95319190
vn 2.3318717e-3 0.16412523 -0.98643675
vn 0.18902468 -0.30194262 -0.93439838
vn -0.18886167 -0.30063426 -0.93485310
vn 0.95475509 -0.29609418 -2.7766042e-2
vn 2.8053319e-2 0.17842310 -0.98355387
vn -2.7720930e-2 0.17717584 -0.98378873
vn -0.12890029 -0.77162855 -0.62287566
vn -0.16348782 0.76613433 -0.62153836
vn -0.95639603 -0.29061306 -2.9166665e-2
vn 0.15104184 -0.16005331 -0.97548414
vn -0.14932008 -0.16100792 -0.97559211
vn 0.34280067 -3.0410585e-2 -0.93891581
vn -0.33886340 -3.2456530e-2 -0.94027558
vn 0.73724712 -0.33417830 -0.58718954
vn -0.73724712 -0.33417830 -0.58718954
vn 0.39157180 -0.67800161 -0.62208146
vn 0.95019767 -0.20303032 -0.23643830
vn -0.95019767 -0.20303032 -0.23643830
vn -0.27643289 -0.56216870 -0.77945572
vn 2.6218446e-2 -0.78736783 -0.61592572
vn 0.18065632 0.41130498 -0.89341564
vn -0.18058484 0.41031240 -0.89388638
vn -0.46764186 -0.28373805 0.83714026
vn 0.98357940 0.17362903 4.9239373e-2
vn -0.98357940 0.17362903 4.9239373e-2
vn 0.33011132 -8.8356369e-2 0.93979767
g Polygon_sep8_default
usemtl default
f 1/50/1 19/24/19 4/22/4
f 1/50/1 36/28/36 19/24/19
f 1/50/1 67/47/67 36/28/36
f 2/56/2 26/42/26 16/75/16
f 2/56/2 35/76/35 12/75/12
f 3/79/3 71/81/71 20/69/20
f 3/79/3 107/82/107 59/89/59
f 4/22/4 24/54/24 1/50/1
f 4/22/4 66/16/66 14/2/14
f 4/22/4 102/53/102 24/54/24
f 5/85/5 38/80/38 24/54/24
f 5/85/5 65/87/65 38/80/38
f 5/85/5 92/84/92 17/95/17
f 6/79/6 45/71/45 21/69/21
f 6/79/6 64/86/64 61/89/61
f 6/79/6 76/81/76 64/86/64
f 6/79/6 108/82/108 45/71/45
f 7/40/7 47/37/47 21/69/21
f 7/40/7 55/41/55 20/69/20
f 8/45/8 78/48/78 22/39/22
f 8/45/8 90/38/90 48/55/48
f 9/72/9 76/81/76 46/70/46
f 9/72/9 77/74/77 50/78/50
f 9/72/9 86/58/86 49/68/49
f 10/7/10 47/37/47 43/8/43
f 10/7/10 71/1/71 34/3/34
f 10/7/10 79/6/79 33/11/33
f 10/7/10 85/20/85 47/37/47
f 11/5/11 40/17/40 30/23/30
f 11/5/11 79/6/79 34/3/34
f 11/5/11 97/12/97 40/17/40
f 11/5/11 100/4/100 97/12/97
f 11/5/11 104/18/104 56/9/56
f 12/75/12 26/42/26 2/56/2
f 12/75/12 44/71/44 26/42/26
f 12/75/12 107/82/107 44/71/44
f 13/97/13 25/96/25 17/98/17
f 13/97/13 58/93/58 15/92/15
f 13/95/13 87/84/87 37/85/37
f 13/95/13 109/94/109 87/84/87
f 14/80/14 37/85/37 4/54/4
f 14/80/14 63/87/63 37/85/37
f 14/80/14 100/77/100 63/87/63
f 15/92/15 25/96/25 13/97/13
f 15/92/15 51/83/51 35/76/35
f 15/92/15 59/89/59 51/83/51
f 15/92/15 82/90/82 25/96/25
f 16/75/16 35/76/35 2/56/2
f 16/75/16 52/83/52 35/76/35
f 16/75/16 108/82/108 52/83/52
f 17/97/17 25/96/25 18/92/18
f 17/95/17 60/91/60 5/85/5
f 17/100/17 109/94/109 13/95/13
f 18/92/18 60/93/60 17/97/17
f 18/92/18 61/89/61 60/93/60
f 18/92/18 82/90/82 35/76/35
f 19/24/19 66/16/66 4/22/4
f 20/69/20 44/71/44 3/79/3
f 20/69/20 47/37/47 7/40/7
f 20/69/20 55/41/55 44/71/44
f 20/69/20 71/81/71 43/70/43
f 21/69/21 47/37/47 46/70/46
f 21/69/21 55/41/55 7/40/7
f 21/69/21 76/81/76 6/79/6
f 22/39/22 32/31/32 8/45/8
f 22/39/22 73/25/73 31/35/31
f 22/39/22 75/52/75 73/25/73
f 22/39/22 78/48/78 29/57/29
f 23/46/23 48/55/48 30/23/30
f 23/46/23 72/44/72 39/59/39
f 23/46/23 103/33/103 72/44/72
f 24/54/24 54/60/54 1/50/1
f 24/54/24 92/84/92 5/85/5
f 24/54/24 102/53/102 92/84/92
f 25/96/25 82/90/82 18/92/18
f 26/42/26 45/71/45 16/75/16
f 26/42/26 55/41/55 45/71/45
f 27/19/27 80/29/80 31/35/31
f 27/19/27 88/13/88 80/29/80
f 27/19/27 94/14/94 88/13/88
f 28/73/28 48/55/48 39/59/39
f 28/73/28 77/74/77 57/66/57
f 28/73/28 101/77/101 50/78/50
f 28/73/28 105/61/105 48/55/48
f 29/57/29 75/52/75 22/39/22
f 29/57/29 83/64/83 75/52/75
f 29/57/29 93/63/93 83/64/83
f 30/23/30 53/30/53 23/46/23
f 30/23/30 74/34/74 32/31/32
f 30/23/30 90/38/90 74/34/74
f 30/23/30 104/18/104 11/5/11
f 31/35/31 32/31/32 22/39/22
f 31/35/31 73/25/73 27/19/27
f 31/35/31 80/29/80 32/31/32
f 32/31/32 74/34/74 8/45/8
f 32/31/32 80/29/80 30/23/30
f 33/11/33 85/20/85 10/7/10
f 33/11/33 95/10/95 81/15/81
f 34/78/34 71/81/71 62/88/62
f 34/3/34 79/6/79 10/7/10
f 34/3/34 100/4/100 11/5/11
f 35/76/35 51/83/51 12/75/12
f 35/76/35 52/83/52 18/92/18
f 35/76/35 82/90/82 15/92/15
f 36/28/36 66/16/66 19/24/19
f 36/28/36 68/26/68 66/16/66
f 36/28/36 69/51/69 68/26/68
f 37/85/37 58/91/58 13/95/13
f 37/85/37 63/87/63 58/91/58
f 37/85/37 87/84/87 4/54/4
f 38/80/38 54/60/54 24/54/24
f 38/80/38 98/65/98 54/60/54
f 38/80/38 101/77/101 98/65/98
f 39/59/39 48/55/48 23/46/23
f 39/59/39 91/43/91 42/49/42
f 39/59/39 98/65/98 28/73/28
f 40/17/40 53/30/53 30/23/30
f 40/17/40 70/27/70 41/32/41
f 40/17/40 97/12/97 68/26/68
f 40/17/40 103/33/103 53/30/53
f 41/32/41 70/27/70 42/49/42
f 41/32/41 84/36/84 40/17/40
f 41/32/41 91/43/91 84/36/84
f 42/49/42 69/51/69 39/59/39
f 42/49/42 70/27/70 69/51/69
f 42/49/42 91/43/91 41/32/41
f 43/70/43 47/37/47 20/69/20
f 43/8/43 71/1/71 10/7/10
f 44/71/44 55/41/55 26/42/26
f 44/71/44 107/82/107 3/79/3
f 45/71/45 55/41/55 21/69/21
f 45/71/45 108/82/108 16/75/16
f 46/70/46 47/37/47 9/72/9
f 46/70/46 76/81/76 21/69/21
f 47/37/47 85/20/85 73/25/73
f 47/37/47 86/58/86 9/72/9
f 48/55/48 78/48/78 8/45/8
f 48/55/48 90/38/90 30/23/30
f 48/55/48 105/61/105 78/48/78
f 49/68/49 77/74/77 9/72/9
f 49/68/49 86/58/86 83/64/83
f 49/68/49 96/67/96 77/74/77
f 50/78/50 65/87/65 64/88/64
f 50/78/50 76/81/76 9/72/9
f 50/78/50 77/74/77 28/73/28
f 50/78/50 101/77/101 65/87/65
f 51/83/51 107/82/107 12/75/12
f 52/83/52 61/89/61 18/92/18
f 52/83/52 108/82/108 61/89/61
f 53/30/53 103/33/103 23/46/23
f 54/60/54 67/47/67 1/50/1
f 54/60/54 69/51/69 67/47/67
f 54/60/54 98/65/98 69/51/69
f 56/9/56 79/6/79 11/5/11
f 56/9/56 95/10/95 79/6/79
f 56/9/56 104/18/104 88/13/88
f 57/66/57 93/63/93 89/62/89
f 57/66/57 96/67/96 93/63/93
f 57/66/57 105/61/105 28/73/28
f 58/93/58 59/89/59 15/92/15
f 58/93/58 62/86/62 59/89/59
f 58/91/58 63/87/63 62/88/62
f 59/89/59 62/86/62 3/79/3
f 59/89/59 107/82/107 51/83/51
f 60/91/60 65/87/65 5/85/5
f 61/89/61 64/86/64 60/93/60
f 61/89/61 108/82/108 6/79/6
f 62/88/62 63/87/63 34/78/34
f 62/86/62 71/81/71 3/79/3
f 63/87/63 100/77/100 34/78/34
f 64/88/64 65/87/65 60/91/60
f 64/88/64 76/81/76 50/78/50
f 65/87/65 101/77/101 38/80/38
f 66/16/66 97/12/97 14/2/14
f 67/47/67 69/51/69 36/28/36
f 68/26/68 70/27/70 40/17/40
f 68/26/68 97/12/97 66/16/66
f 69/51/69 70/27/70 68/26/68
f 69/51/69 98/65/98 39/59/39
f 72/44/72 84/36/84 39/59/39
f 72/44/72 103/33/103 84/36/84
f 73/25/73 75/52/75 47/37/47
f 73/25/73 81/15/81 27/19/27
f 73/25/73 85/20/85 81/15/81
f 74/34/74 90/38/90 8/45/8
f 75/52/75 86/58/86 47/37/47
f 77/74/77 96/67/96 57/66/57
f 78/48/78 89/62/89 29/57/29
f 78/48/78 105/61/105 89/62/89
f 79/6/79 95/10/95 33/11/33
f 80/29/80 104/18/104 30/23/30
f 81/15/81 85/20/85 33/11/33
f 81/15/81 94/14/94 27/19/27
f 81/15/81 95/10/95 94/14/94
f 83/64/83 86/58/86 75/52/75
f 83/64/83 96/67/96 49/68/49
f 84/36/84 91/43/91 39/59/39
f 84/36/84 103/33/103 40/17/40
f 87/84/87 99/53/99 4/54/4
f 87//87 109//109 106//106 92//92 102//102 99//99
f 88/13/88 94/14/94 56/9/56
f 88/13/88 104/18/104 80/29/80
f 89/62/89 93/63/93 29/57/29
f 89/62/89 105/61/105 57/66/57
f 92/84/92 106/94/106 17/95/17
f 93/63/93 96/67/96 83/64/83
f 94/14/94 95/10/95 56/9/56
f 97/12/97 100/4/100 14/2/14
f 98/65/98 101/77/101 28/73/28
f 99/21/99 102/53/102 4/22/4
f 106/99/106 109/94/109 17/100/17
