/* XPM */
static char *ufo[] = {
/* columns rows colors chars-per-pixel */
"32 32 202 2",
"   c #030603",
".  c #040C05",
"X  c #021506",
"o  c #051509",
"O  c #021A05",
"+  c #041E0A",
"@  c #022406",
"#  c #03250C",
"$  c #042907",
"%  c #052D0E",
"&  c #0A280E",
"*  c #042D11",
"=  c #0A2E13",
"-  c #05330C",
";  c #073B0B",
":  c #063D0E",
">  c #063212",
",  c #05351C",
"<  c #053B12",
"1  c #0B3515",
"2  c #0A3815",
"3  c #083C1C",
"4  c #064F0F",
"5  c #0A420F",
"6  c #0B4113",
"7  c #0C451B",
"8  c #0A4B13",
"9  c #0C4A1B",
"0  c #065611",
"q  c #0D5517",
"w  c #0E561D",
"e  c #0D5A1C",
"r  c #11431C",
"t  c #115C1D",
"y  c #074120",
"u  c #0C4520",
"i  c #0D4C26",
"p  c #0D4E2C",
"a  c #114B25",
"s  c #124E29",
"d  c #135223",
"f  c #12552C",
"g  c #135B21",
"h  c #165A2B",
"j  c #195527",
"k  c #1B5D2D",
"l  c #115430",
"z  c #165B33",
"x  c #1A5D32",
"c  c #076016",
"v  c #11631F",
"b  c #0E7B25",
"n  c #136423",
"m  c #16672D",
"M  c #116925",
"N  c #1C6333",
"B  c #1A6439",
"V  c #1F6D37",
"C  c #1F6A3C",
"Z  c #147626",
"A  c #167929",
"S  c #1A732C",
"D  c #1C7536",
"F  c #1C7E33",
"G  c #226935",
"H  c #226D3D",
"J  c #247632",
"K  c #257439",
"L  c #297B3C",
"P  c #206540",
"I  c #236F41",
"U  c #247244",
"Y  c #297644",
"T  c #327C45",
"R  c #357B54",
"E  c #477D54",
"W  c #198822",
"Q  c #1D8433",
"!  c #1C8C37",
"~  c #1B9137",
"^  c #1E933C",
"/  c #1E9C36",
"(  c #1FA239",
")  c #248E3C",
"_  c #26953A",
"`  c #30AD3F",
"'  c #2C8442",
"]  c #2B8F46",
"[  c #279B46",
"{  c #37894C",
"}  c #3C835B",
"|  c #3D8A5B",
" . c #359D4C",
".. c #3B924D",
"X. c #3F9854",
"o. c #2DA444",
"O. c #2BAB45",
"+. c #2CAB4E",
"@. c #26B848",
"#. c #3DA651",
"$. c #3FA958",
"%. c #32B04F",
"&. c #37BC59",
"*. c #26CC4D",
"=. c #2FCC55",
"-. c #36C655",
";. c #39CB57",
":. c #3ED75D",
">. c #3DDA67",
",. c #3CF361",
"<. c #409253",
"1. c #4E976E",
"2. c #45B55C",
"3. c #4DA961",
"4. c #5AAF6C",
"5. c #5BB571",
"6. c #5DBC71",
"7. c #62A073",
"8. c #6BBB7C",
"9. c #45C45E",
"0. c #40CE61",
"q. c #4AC466",
"w. c #43D765",
"e. c #4DD16D",
"r. c #4DDB6A",
"t. c #5DCA77",
"y. c #54DB6E",
"u. c #5AD779",
"i. c #5CDB7B",
"p. c #54EF58",
"a. c #46E269",
"s. c #4AEF74",
"d. c #55F37B",
"f. c #5AF87B",
"g. c #67CA77",
"h. c #69D47B",
"j. c #6DE17F",
"k. c #75FF7B",
"l. c #5DFD84",
"z. c #7BC48A",
"x. c #76DB8C",
"c. c #68EB84",
"v. c #66FB86",
"b. c #6DF592",
"n. c #6DFD92",
"m. c #71EF86",
"M. c #75F48F",
"N. c #72FF93",
"B. c #7CFF9D",
"V. c #77FFA0",
"C. c #84B28B",
"Z. c #85CC93",
"A. c #91C49B",
"S. c #92D09C",
"D. c #97D7A4",
"F. c #91DBA1",
"G. c #81FF9C",
"H. c #89FF9E",
"J. c #84FFA4",
"K. c #85FFAB",
"L. c #8CFDAA",
"P. c #86FFB4",
"I. c #96E8A7",
"U. c #96FFBA",
"Y. c #9DFFB6",
"T. c #A0D8AA",
"R. c #ACE6BA",
"E. c #ACE8B7",
"W. c #A1FFA4",
"Q. c #A5FBB2",
"!. c #AEF6BD",
"~. c #ABFFBD",
"^. c #B0EBBA",
"/. c #B0FFB3",
"(. c #B0FEBE",
"). c #9BFFC4",
"_. c #9DFFC9",
"`. c #A3FFC4",
"'. c #ADFFC7",
"]. c #B6EDC4",
"[. c #B2FFC5",
"{. c #B7FFCD",
"}. c #BEFFCD",
"|. c #B1FFD3",
" X c #B4FFD8",
".X c #BDFFD6",
"XX c #BCFFDE",
"oX c #BCFFE3",
"OX c #CBFFD6",
"+X c #CAFFDD",
"@X c #D0FFDB",
"#X c #C2FFE5",
"$X c #C8FFE7",
"%X c #D6FFE2",
"&X c #DAFFE5",
"*X c #DBFFEE",
"=X c #D9FFFA",
"-X c #E5FEEC",
";X c #EAFFF7",
":X c #ECFFFC",
">X c #F3FFFA",
",X c #FDFFFF",
/* pixels */
"    .             . .   . . . . . . . .     . . X X X X X .     ",
". + & + .       o & & + O & = 1 = = = # X X + = 1 3 3 3 1 = + . ",
"# q v 9 % $ $ - w Z n n W ` ^ / -.-.;.) 7 1 g ~ Q S ! p.W.Q.2.K ",
"1 K ..J : % % 5 S #. .S ) $.#.9.n.l.N.q.S g ) u.t.5.6.k./.*XM.X.",
"; Z.>XT.6 % % 4 4.>X&Xo.F.>X>X,X,X,X,X,Xt.+.(.,X,X,X>X,X,X,X:Xx.",
"8 F.,X^.w @ @ 0 g.,X:X&.I.,X,X,X,X,X,X,Xu.i.,X,X,X,X,X,X,X,X,XL.",
"q I.,X!.v % O 0 h.,X;X:.r.B.H.|. XY.U.N.-.x.,X,X|.H.'.`.#X,X,XB.",
"e I.,X[.A : - c j.,X:X:.y.G.J.`._.U.XXU.d.B.:X=Xv.,.B.K.).,X,Xb.",
"t D.,X{./ e e b m.,X>X0.Y.,X>X,X,X,X,X,Xn.s.P._.l.l.'.$X=X=X_.n.",
"w S.,X}.@.A A ! v.:X&X:.~.,X>X*X>X,X,X,XJ.n.oX#XK.B.L.J.oX,X#Xn.",
"8 A.,X%X0._ ) o.w.f.r.*.[.,XOXa.w.d.v.m.e.Y.,X,X#X).`.V.).,X,Xb.",
"< C.,X,X%X@XOX@X@X@X(.@.~.,X}.@.! ! 9.&.%.L.,X,X,X,X,X,X,X,X,Xi.",
"% E -X,X,X,X,X,X,X,X-XO.Q.,XOX^ t w ) ] F q.,X,X,X,X,X,X,X,X{.[ ",
"+ a 7.E.(.!.R.R.E.R.S.F 8.].z.S 6 - 9 9 6 S c..X$X=X+X.XXX|.u.~ ",
". > g J / ( ~ ! Q F n t n F M 9 > > d j 7 n +.>.=.a.d.s.>.0.e.] ",
"  o 1 r g Z Z M e w 9 6 9 w 9 > # > d N k L 6.e.-.+.^ ^ Q [ ' V ",
"    X + & 5 8 4 : % % % - > > * # r G T k <.3.3. .D m k h d 7 d ",
"      . . O : : : % # # # % % - d L ' { <.{ { { K V z h f k a s ",
"            X $ $ @ @ X O @ # d K K G k G f h f x N f i i i a x ",
"              X % % % @ O % 6 d 9 i < < 7 i i i f x N x f h f z ",
"                O - % % O - 9 < % % > 7 i d N N H Y Y Y U B N B ",
"                  O - - # O % % % 2 7 7 7 i f f h H H I I B C U ",
"                    O % % @ O # - > 2 7 7 i i d z N C H C I C U ",
"                      X # % # # % > 2 2 7 7 7 i i i i f f z B B ",
"                        . O % % % > > 2 7 7 3 7 i s i f f f l p ",
"                            X @ # # % > < 2 7 u u f f 3 , , p p ",
"                                X # % # % > 3 3 3 7 3 y i P } 1.",
"                                    X @ % % < 7 7 7 z Y | | R P ",
"                                        . X # - 2 9 m N s y y p ",
"                                                . X # # # * > > ",
"                                                                ",
"                                                                "
};
