# Exported from Wings 3D 0.98.35
mtllib pistolshotgun.mtl
o torus3_sep5
#145 vertices, 138 faces
v -0.53747980 -0.35881055 -0.65742847
v -0.53747980 3.41546319 -0.65742847
v 0.53747980 3.41546319 -0.65742847
v 0.53747980 -0.35881055 -0.65742847
v -0.53747980 -0.66452672 -2.68607320
v -0.53747980 3.72117936 -2.68607320
v 0.53747980 3.72117936 -2.68607320
v 0.53747980 -0.66452672 -2.68607320
v -0.53747980 5.07383764 -1.30983940
v 0.53747980 5.07383764 -1.30983940
v 0.53747980 5.07383764 -2.68607320
v -0.53747980 5.07383764 -2.68607320
v 0.53747980 -3.39529755 -1.56966393
v -0.53747980 -3.39529755 -1.56966393
v -0.53747980 -3.39529755 -2.68607320
v 0.53747980 -3.39529755 -2.68607320
v -0.53747980 1.8616826e-2 -2.55436728
v -0.53747980 3.03803581 -2.55436728
v 0.53747980 3.03803581 -2.55436728
v 0.53747980 1.8616826e-2 -2.55436728
v -0.46067396 1.31764028 -0.67893644
v -5.0482496e-2 1.26385751 -0.67893644
v 5.0482496e-2 1.26385751 -0.67893644
v 0.46067396 1.31764028 -0.67893644
v -0.42457144 2.88126563 -0.67893644
v -0.14152380 3.08470842 -0.67893644
v 0.14152380 3.08470842 -0.67893644
v 0.42457144 2.88126563 -0.67893644
v -0.14166768 3.46450391 0.71978383
v 0.14166768 3.46450391 0.71978383
v -0.35578563 3.34783527 0.68499202
v -0.38123875 1.97914306 0.68145024
v 0.38123875 1.97914306 0.68145024
v 0.35578563 3.34783527 0.68499202
v -0.12778949 2.63247421 2.08794136
v 0.12778949 2.63247421 2.08794136
v -0.11985085 4.00622856 1.90643749
v 0.11985085 4.00622856 1.90643749
v 0.35671595 2.68616400 2.07602480
v 0.33290008 3.90767976 1.88176356
v -0.33290008 3.90767976 1.88176356
v -0.35671595 2.68616400 2.07602480
v 0.37904231 1.62030312 -0.14794348
v -0.37904231 1.62030312 -0.14794348
v -0.13864506 1.56199598 -9.4769886e-2
v 0.13864506 1.56199598 -9.4769886e-2
v 0.39550635 1.55646632 -0.25731720
v -0.39550635 1.55646632 -0.25731720
v -0.13864506 1.49868269 -0.20583015
v 0.13864506 1.49868269 -0.20583015
v -0.10831645 1.13113387 -7.6307315e-2
v 0.10831645 1.13113387 -7.6307315e-2
v -0.10831645 1.19415323 -0.18898701
v 0.10831645 1.19415323 -0.18898701
v -0.10831645 0.72509339 -0.22741302
v 0.10831645 0.72509339 -0.22741302
v -0.10831645 0.85371550 -0.29915674
v 0.10831645 0.85371550 -0.29915674
v -0.10831645 0.50031472 -0.67893636
v 0.10831645 0.50031472 -0.67893636
v -0.10831645 0.65667270 -0.67893636
v 0.10831645 0.65667270 -0.67893636
v 4.6836545e-2 1.28366033 -0.60518639
v -4.6836545e-2 1.28366033 -0.60518639
v 5.0229575e-2 1.13205153 -0.67893644
v -5.0229575e-2 1.13205153 -0.67893644
v -4.6836545e-2 1.12263291 -0.35107539
v -4.7295862e-2 1.09113923 -0.37707233
v -4.7058905e-2 1.12428301 -0.45476104
v 4.7058905e-2 1.12428301 -0.45476104
v 4.7295862e-2 1.09113923 -0.37707233
v 4.6836545e-2 1.12263291 -0.35107539
v 4.6836545e-2 1.23746223 -0.47321771
v -4.6836545e-2 1.23746223 -0.47321771
v 4.7058905e-2 1.15338698 -0.58624237
v -4.7058905e-2 1.15338698 -0.58624237
v -4.6836545e-2 1.09467255 -0.34011175
v -4.7295862e-2 1.06374539 -0.34742013
v 4.7295862e-2 1.06374539 -0.34742013
v 4.6836545e-2 1.09467255 -0.34011175
v -0.27454300 2.73006005 2.07171504
v -0.11501440 2.69251181 2.07918494
v 0.11501440 2.69251181 2.07918494
v 0.27454300 2.73006005 2.07171504
v 0.25231149 3.87325094 1.89078581
v 9.8276133e-2 3.91911880 1.91609430
v -9.8276133e-2 3.91911880 1.91609430
v -0.25231149 3.87325094 1.89078581
v -0.27454300 2.97905069 2.66387608
v -0.11501440 2.94201897 2.67336108
v 0.11501440 2.94201897 2.67336108
v 0.27454300 2.97905069 2.66387608
v 0.25231149 4.10014824 2.37672743
v 9.8276133e-2 4.14122852 2.36620547
v -9.8276133e-2 4.14122852 2.36620547
v -0.25231149 4.10014824 2.37672743
v 0.34122434 -3.37071921 -2.10794789
v 0.24128204 -3.37071921 -1.86666584
v 3.1112351e-17 -3.37071921 -1.76672355
v -0.24128204 -3.37071921 -1.86666584
v -0.34122434 -3.37071921 -2.10794789
v -0.24128204 -3.37071921 -2.34922993
v -5.2460747e-17 -3.37071921 -2.44917223
v 0.24128204 -3.37071921 -2.34922993
v 0.34122434 -5.07140698 -2.10794789
v 0.24128204 -5.07140698 -1.86666584
v 3.1112351e-17 -5.07140698 -1.76672355
v -0.24128204 -5.07140698 -1.86666584
v -0.34122434 -5.07140698 -2.10794789
v -0.24128204 -5.07140698 -2.34922993
v -5.2460747e-17 -5.07140698 -2.44917223
v 0.24128204 -5.07140698 -2.34922993
v 0.31771354 -0.41944154 -0.34221554
v 0.22465740 -0.48426205 -0.12711266
v -7.0375613e-17 -0.51111159 -3.8014136e-2
v -0.22465740 -0.48426205 -0.12711266
v -0.31771354 -0.41944154 -0.34221554
v -0.22465740 -0.35462103 -0.55731841
v -1.4819042e-16 -0.32777149 -0.64641694
v 0.22465740 -0.35462103 -0.55731841
v 0.31771354 -2.80483847 -1.05249155
v 0.22465740 -2.87760892 -0.83994647
v 2.7934530e-17 -2.90775142 -0.75190742
v -0.22465740 -2.87760892 -0.83994647
v -0.31771354 -2.80483847 -1.05249155
v -0.22465740 -2.73206803 -1.26503662
v -4.9880273e-17 -2.70192552 -1.35307567
v 0.22465740 -2.73206803 -1.26503662
v 0.38252710 -2.98360181 -1.05882538
v 0.27048750 -3.07121743 -0.85779165
v 1.7641437e-17 -3.10750900 -0.75179263
v -0.27048750 -3.07121743 -0.85779165
v -0.38252710 -2.98360181 -1.05882538
v 0.38252710 -3.14541346 -1.05882538
v 0.27048750 -3.23302907 -1.05882538
v 2.6903798e-17 -3.26932065 -1.05882538
v -0.27048750 -3.23302907 -1.05882538
v -0.38252710 -3.14541346 -1.05882538
v -0.38252710 -2.98360181 -1.56515930
v 0.38252710 -2.98360181 -1.56515930
v 0.38252710 -3.14541346 -1.56515930
v 0.27048750 -3.26579916 -1.56515930
v 2.6903798e-17 -3.30209074 -1.56515930
v -0.27048750 -3.26579916 -1.56515930
v -0.38252710 -3.14541346 -1.56515930
vt 0.74512139 0.41957568
vt 0.74580201 0.41905008
vt 0.74613033 0.41941927
vt 0.74616376 0.41933728
vt 0.74621660 0.41921032
vt 0.74626285 0.41928617
vt 0.74628911 0.41929531
vt 0.74629193 0.41928231
vt 0.74629551 0.41928986
vt 0.74629630 0.41928805
vt 0.74631838 0.41927561
vt 0.74632092 0.41928174
vt 0.74632128 0.41927534
vt 0.74632694 0.41927658
vt 0.74633659 0.41929075
vt 0.74649450 0.41931797
vt 0.74649896 0.41921905
vt 0.74658635 0.41945014
vt 0.74690499 0.41915361
vt 0.74741206 0.41959189
vt 0.79763891 0.86183829
vt 0.79848535 0.85977515
vt 0.79870875 0.85969575
vt 0.79936413 0.85835323
vt 0.79958174 0.85828048
vt 0.79980978 0.86099658
vt 0.79998109 0.84749930
vt 0.80035294 0.84568382
vt 0.80090078 0.84562444
vt 0.80153933 0.84726955
vt 0.80238890 0.84384077
vt 0.80268656 0.84201209
vt 0.80320605 0.84199733
vt 0.80380421 0.84374070
vt 0.81258813 0.82265794
vt 0.81358664 0.82314355
vt 0.81893591 0.82467190
vt 0.81985754 0.82448349
vt 0.82534281 0.82555125
vt 0.82620389 0.82535449
vt 0.82952180 0.81147162
vt 0.83034310 0.81140844
vt 0.83467879 0.81497881
vt 0.83495813 0.86263026
vt 0.83501048 0.86347745
vt 0.83545137 0.81488237
vt 0.84105062 0.77899587
vt 0.84120833 0.77904515
vt 0.84133985 0.77954112
vt 0.84141863 0.78037161
vt 0.84190052 0.86227484
vt 0.84200519 0.86254930
vt 0.84653918 0.80503694
vt 0.84719934 0.80503491
vt 0.84892014 0.81035069
vt 0.84955782 0.81029812
vt 0.86137677 0.81157038
vt 0.86204103 0.81148837
vt 0.86410275 0.82431142
vt 0.86420631 0.80649892
vt 0.86454746 0.82388657
vt 0.86483620 0.80647854
vt 0.86890722 0.82312508
vt 0.86910870 0.82296277
vt 0.89635534 0.78825367
vt 0.89704891 0.78712421
vt 0.90050820 0.78716020
vt 0.90078739 0.78674803
vn -0.89632428 -6.4472819e-2 0.43868671
vn -0.83652947 0.10208255 0.53832853
vn 0.89754809 8.2146535e-2 0.43319670
vn 0.83477002 -8.0060275e-2 0.54474707
vn -0.70871048 6.7082203e-2 -0.70230295
vn -0.70871048 -6.7082203e-2 -0.70230295
vn 0.70871048 -6.7082203e-2 -0.70230295
vn 0.70871048 6.7082203e-2 -0.70230295
vn -0.51762870 0.70712899 0.48169401
vn 0.51762870 0.70712899 0.48169401
vn 0.57735027 0.57735027 -0.57735027
vn -0.57735027 0.57735027 -0.57735027
vn 0.52885320 -0.68101535 0.50649027
vn -0.52885320 -0.68101535 0.50649027
vn -0.57735027 -0.57735027 -0.57735027
vn 0.57735027 -0.57735027 -0.57735027
vn -0.70871048 6.7082203e-2 -0.70230295
vn -0.83321005 -5.2577714e-2 -0.55045127
vn 0.70871048 -6.7082203e-2 -0.70230295
vn 0.83321005 5.2577714e-2 -0.55045127
vn -0.53760269 -0.75139144 0.38261502
vn 0.53760269 -0.75139144 0.38261502
vn -0.94714327 0.31973322 -2.6273354e-2
vn -0.26648452 0.92803733 -0.26025510
vn 0.26648452 0.92803733 -0.26025510
vn 0.94714327 0.31973322 -2.6273354e-2
vn -0.22851851 0.91393243 -0.33542034
vn 0.22851851 0.91393243 -0.33542034
vn -0.85038495 0.49724699 -0.17201999
vn -0.39154576 -0.82298965 0.41155796
vn 0.54029644 -0.75266866 0.37625743
vn 0.85038495 0.49724699 -0.17201999
vn 0.70092094 -0.60721890 0.37415911
vn -0.70092094 -0.60721890 0.37415911
vn -0.41487138 -0.68134247 0.60303746
vn 0.33570560 -0.73637578 0.58741166
vn 0.50146578 -0.73382781 0.45828901
vn -0.50146578 -0.73382781 0.45828901
vn -0.45676643 -0.86381246 0.21258520
vn 0.37517845 -0.88674735 0.27003753
vn -0.71095916 -0.13821810 0.68951637
vn 0.71095916 -0.13821810 0.68951637
vn -0.71411599 6.0970308e-2 -0.69736717
vn 0.71411599 6.0970308e-2 -0.69736717
vn -0.73226227 -0.45546034 0.50630805
vn 0.73226227 -0.45546034 0.50630805
vn -0.73407840 0.43880685 -0.51824458
vn 0.73407840 0.43880685 -0.51824458
vn -0.70710678 -0.63300582 0.31512480
vn 0.70710678 -0.63300582 0.31512480
vn -0.70710678 0.62765616 -0.32564972
vn 0.70710678 0.62765616 -0.32564972
vn -0.71240196 0.39424851 0.58056142
vn -0.71558441 -0.58724331 -0.37826479
vn -0.70987208 -0.67071064 -0.21500900
vn 0.70987208 -0.67071064 -0.21500900
vn 0.71558441 -0.58724331 -0.37826479
vn 0.71240196 0.39424851 0.58056142
vn 0.71358327 0.59903138 0.36326342
vn -0.71358327 0.59903138 0.36326342
vn 0.71643103 -0.69743726 1.7545358e-2
vn -0.71643103 -0.69743726 1.7545358e-2
vn -0.46167562 6.6302235e-2 0.88456748
vn -0.70571766 -0.67472201 0.21613145
vn 0.70571766 -0.67472201 0.21613145
vn 0.46167562 6.6302235e-2 0.88456748
vn -0.63923187 -0.32811598 0.69550163
vn -9.7758062e-2 -0.66846063 0.73729488
vn 9.7758062e-2 -0.66846063 0.73729488
vn 0.63923187 -0.32811598 0.69550163
vn 0.69636507 0.64910509 0.30616705
vn 0.11165058 0.99240977 5.1546151e-2
vn -0.11165058 0.99240977 5.1546151e-2
vn -0.69636507 0.64910509 0.30616705
vn 0.87946522 0.47596315 1.8494884e-16
vn 0.62187582 0.47596315 0.62187582
vn 0.0000000e+0 0.47596315 0.87946522
vn -0.62187582 0.47596315 0.62187582
vn -0.87946522 0.47596315 4.2274020e-16
vn -0.62187582 0.47596315 -0.62187582
vn -5.2842525e-17 0.47596315 -0.87946522
vn 0.62187582 0.47596315 -0.62187582
vn 0.87945879 0.45573221 0.13733312
vn 0.62119403 0.27791721 0.73272096
vn 0.0000000e+0 0.20436817 0.97889410
vn -0.62119403 0.27791721 0.73272096
vn -0.87945879 0.45573221 0.13733312
vn -0.62240518 0.63380400 -0.45924316
vn -1.0582993e-16 0.70760955 -0.70660366
vn 0.62240518 0.63380400 -0.45924316
vn 0.95674300 0.10154871 0.27263654
vn 0.63071535 -0.27473224 0.72575502
vn 0.0000000e+0 -0.49230125 0.87042489
vn -0.63071535 -0.27473224 0.72575502
vn -0.95674300 0.10154871 0.27263654
vn 0.89475272 -0.39385340 0.21046871
vn 0.49795988 -0.80439745 0.32400725
vn 0.0000000e+0 -0.95109188 0.30890813
vn -0.49795988 -0.80439745 0.32400725
vn -0.89475272 -0.39385340 0.21046871
vn -0.58224622 0.50787779 -0.63486179
vn 0.58224622 0.50787779 -0.63486179
vn 0.80902461 -0.35281525 -0.47010699
vn 0.38499778 -0.81551854 -0.43209516
vn 0.0000000e+0 -0.91504603 -0.40334944
vn -0.38499778 -0.81551854 -0.43209516
vn -0.80902461 -0.35281525 -0.47010699
vn -0.12542483 -0.95659252 0.26305773
vn -0.99918650 2.7915389e-3 4.0231138e-2
vn 0.12542483 -0.95659252 0.26305773
vn 0.99918650 2.7915389e-3 4.0231138e-2
vn -0.11399317 -0.89301221 0.43535588
vn -0.11399317 -0.89301221 0.43535588
vn -8.3063486e-3 0.14198781 0.98983355
vn -8.3063486e-3 0.14198781 0.98983355
vn 7.5938419e-2 -0.89901368 0.43128618
vn 7.5938419e-2 -0.89901368 0.43128618
vn 7.5938419e-2 -0.89901368 0.43128618
vn 8.3063486e-3 0.14198781 0.98983355
vn 8.3063486e-3 0.14198781 0.98983355
vn -0.18963017 0.89360689 -0.40682567
vn -0.18963017 0.89360689 -0.40682567
vn -7.3311821e-2 6.9913438e-2 0.99485551
vn -7.3311821e-2 6.9913438e-2 0.99485551
vn 0.18963017 0.89360689 -0.40682567
vn 0.18963017 0.89360689 -0.40682567
vn 7.3311821e-2 6.9913438e-2 0.99485551
vn 7.3311821e-2 6.9913438e-2 0.99485551
vn 0.78720520 -0.54406079 0.29035465
vn 0.78720520 -0.54406079 0.29035465
vn 2.7169625e-2 0.14848951 0.98854068
vn 2.7169625e-2 0.14848951 0.98854068
vn 0.82427297 0.51947060 -0.22522071
vn 0.82427297 0.51947060 -0.22522071
vn 9.2241752e-2 9.3561152e-2 0.99133131
vn 9.2241752e-2 9.3561152e-2 0.99133131
vn -0.82427297 0.51947060 -0.22522071
vn -0.82427297 0.51947060 -0.22522071
vn -9.2241752e-2 9.3561152e-2 0.99133131
vn -9.2241752e-2 9.3561152e-2 0.99133131
vn -0.78720520 -0.54406079 0.29035465
vn -0.78720520 -0.54406079 0.29035465
vn -2.7169625e-2 0.14848951 0.98854068
vn -2.7169625e-2 0.14848951 0.98854068
vn 0.14200880 -0.89816526 0.41609213
vn 0.14200880 -0.89816526 0.41609213
vn 0.89101632 0.42275482 0.16543359
vn 0.89101632 0.42275482 0.16543359
vn 0.89101632 0.42275482 0.16543359
vn 0.14200880 -0.89816526 0.41609213
vn 0.14200880 -0.89816526 0.41609213
vn -0.11359383 -0.89632209 0.42860605
vn -0.89101632 0.42275482 0.16543359
vn -0.11359383 -0.89632209 0.42860605
vn -0.89101632 0.42275482 0.16543359
vn -0.89101632 0.42275482 0.16543359
vn -0.11359383 -0.89632209 0.42860605
vn -0.11359383 -0.89632209 0.42860605
vn -0.11359383 -0.89632209 0.42860605
vn 0.70431516 -0.68495949 0.18646893
vn 0.70431516 -0.68495949 0.18646893
vn -0.70431516 -0.68495949 0.18646893
vn -0.70431516 -0.68495949 0.18646893
vn -2.7169625e-2 0.14848951 0.98854068
vn -2.7169625e-2 0.14848951 0.98854068
vn -0.79020910 -0.56507244 0.23719764
vn -0.79020910 -0.56507244 0.23719764
vn -8.3063486e-3 0.14198781 0.98983355
vn -8.3063486e-3 0.14198781 0.98983355
vn -0.11566054 -0.91577545 0.38467904
vn -0.11566054 -0.91577545 0.38467904
vn 8.3063486e-3 0.14198781 0.98983355
vn 8.3063486e-3 0.14198781 0.98983355
vn 0.11566054 -0.91577545 0.38467904
vn 0.11566054 -0.91577545 0.38467904
vn 2.7169625e-2 0.14848951 0.98854068
vn 2.7169625e-2 0.14848951 0.98854068
vn 0.79020910 -0.56507244 0.23719764
vn 0.79020910 -0.56507244 0.23719764
vn 9.2241752e-2 9.3561152e-2 0.99133131
vn 9.2241752e-2 9.3561152e-2 0.99133131
vn 0.77730182 0.56741371 -0.27174173
vn 0.77730182 0.56741371 -0.27174173
vn 7.3311821e-2 6.9913438e-2 0.99485551
vn 7.3311821e-2 6.9913438e-2 0.99485551
vn 0.11454612 0.89326189 -0.43469803
vn 0.11454612 0.89326189 -0.43469803
vn -7.3311821e-2 6.9913438e-2 0.99485551
vn -7.3311821e-2 6.9913438e-2 0.99485551
vn -0.11454612 0.89326189 -0.43469803
vn -0.11454612 0.89326189 -0.43469803
vn -9.2241752e-2 9.3561152e-2 0.99133131
vn -9.2241752e-2 9.3561152e-2 0.99133131
vn -0.77730182 0.56741371 -0.27174173
vn -0.77730182 0.56741371 -0.27174173
vn 0.0000000e+0 -1.00000000 0.0000000e+0
vn 1.00000000 0.0000000e+0 -2.4033935e-16
vn 1.00000000 0.0000000e+0 -2.4033935e-16
vn 0.0000000e+0 -1.00000000 0.0000000e+0
vn 0.70710678 3.3819770e-17 0.70710678
vn 0.70710678 3.3819770e-17 0.70710678
vn 0.0000000e+0 -1.00000000 0.0000000e+0
vn 0.0000000e+0 6.7639540e-17 1.00000000
vn 0.0000000e+0 6.7639540e-17 1.00000000
vn 0.0000000e+0 -1.00000000 0.0000000e+0
vn -0.70710678 5.0729655e-17 0.70710678
vn -0.70710678 5.0729655e-17 0.70710678
vn 0.0000000e+0 -1.00000000 0.0000000e+0
vn -1.00000000 -1.3341514e-32 3.0042419e-17
vn -1.00000000 -1.3341514e-32 3.0042419e-17
vn 0.0000000e+0 -1.00000000 0.0000000e+0
vn -0.70710678 -8.4549426e-17 -0.70710678
vn -0.70710678 -8.4549426e-17 -0.70710678
vn 0.0000000e+0 -1.00000000 0.0000000e+0
vn -6.0084837e-17 -1.3527908e-16 -1.00000000
vn -6.0084837e-17 -1.3527908e-16 -1.00000000
vn 0.0000000e+0 -1.00000000 0.0000000e+0
vn 0.70710678 -6.7639540e-17 -0.70710678
vn 0.70710678 -6.7639540e-17 -0.70710678
vn 1.00000000 -1.4495828e-5 -4.6126464e-6
vn 1.00000000 -1.4495828e-5 -4.6126464e-6
vn 0.89839393 0.37391347 0.23038460
vn 0.89839393 0.37391347 0.23038460
vn 0.70700408 -0.20187143 0.67778548
vn 0.70700408 -0.20187143 0.67778548
vn 0.63931241 0.11541269 0.76023651
vn 0.63931241 0.11541269 0.76023651
vn 0.0000000e+0 -0.28546235 0.95838992
vn 0.0000000e+0 -0.28546235 0.95838992
vn 0.0000000e+0 5.7464849e-4 0.99999983
vn 0.0000000e+0 5.7464849e-4 0.99999983
vn -0.70700408 -0.20187143 0.67778548
vn -0.70700408 -0.20187143 0.67778548
vn -0.63931241 0.11541269 0.76023651
vn -0.63931241 0.11541269 0.76023651
vn -1.00000000 -1.4495828e-5 -4.6126464e-6
vn -1.00000000 -1.4495828e-5 -4.6126464e-6
vn -0.89839393 0.37391347 0.23038460
vn -0.89839393 0.37391347 0.23038460
vn -0.70700340 0.20177212 -0.67781576
vn -0.70700340 0.20177212 -0.67781576
vn -0.63841281 0.70393534 -0.31129428
vn -0.63841281 0.70393534 -0.31129428
vn -1.2016239e-16 0.28529250 -0.95844050
vn -1.2016239e-16 0.28529250 -0.95844050
vn 9.7019185e-17 0.77141013 -0.63633829
vn 9.7019185e-17 0.77141013 -0.63633829
vn 9.7019185e-17 0.77141013 -0.63633829
vn 0.70700340 0.20177212 -0.67781576
vn 0.70700340 0.20177212 -0.67781576
vn 0.63841281 0.70393534 -0.31129428
vn 0.63841281 0.70393534 -0.31129428
g torus3_sep5_default
usemtl default
f 1//1 4//4 3//3 2//2
f 1//1 14//14 13//13 4//4
f 1//1 17//17 5//5
f 2//2 9//9 12//12 6//6
f 2//2 18//18 1//1
f 3//3 10//10 9//9 2//2
f 3//3 19//19 7//7
f 4//4 13//13 16//16 8//8
f 4//4 20//20 3//3
f 5//5 15//15 14//14 1//1
f 6//6 12//12 11//11 7//7
f 6//6 18//18 2//2
f 7//7 11//11 10//10 3//3
f 7//7 19//19 18//18 6//6
f 8//8 16//16 15//15 5//5
f 8//8 20//20 4//4
f 10//10 11//11 12//12 9//9
f 14//14 15//15 16//16 13//13
f 17//17 1//1 18//18
f 17//17 20//20 8//8 5//5
f 18//18 19//19 20//20 17//17
f 19//19 3//3 20//20
f 21/21/21 48/27/38 44/31/34 25/45/23
f 21/21/21 64/24/158 48/27/38
f 22/22/108 64/24/152 21/21/21
f 22/20/109 66/18/162 76/16/62 64/19/153
f 24/26/22 63/25/145 23/23/110
f 25/45/23 31/61/29 29/64/27 26/52/24
f 25/45/23 44/31/34 32/35/30 31/61/29
f 26/52/24 29/64/27 30/63/28 27/51/25
f 27/51/25 30/63/28 34/59/32 28/44/26
f 28/44/26 43/34/33 47/30/37 24/26/22
f 29/64/27 37/68/122 38/67/126 30/63/28
f 30/63/28 38/67/125 40/65/133 34/59/32
f 31/61/29 41/66/137 37/68/121 29/64/27
f 32/35/30 35/48/113 42/47/142
f 32/35/30 42/47/141 41/66/138 31/61/29
f 33/36/31 32/35/30 46/33/36
f 33/36/31 36/49/117 32/35/30
f 33/36/31 46/33/36 43/34/33
f 34/59/32 33/36/31 43/34/33 28/44/26
f 34/59/32 40/65/134 39/50/129 33/36/31
f 35/48/112 32/35/30 36/49/118
f 35/48/114 82/48/168 81/47/164 42/47/143
f 36/49/119 83/49/172 82/48/169 35/48/115
f 37/68/123 87/68/188 86/67/185 38/67/128
f 38/67/127 86/67/184 85/65/181 40/65/136
f 39/50/130 36/49/116 33/36/31
f 39/50/131 84/50/176 83/49/173 36/49/120
f 40/65/135 85/65/180 84/50/177 39/50/132
f 41/66/139 88/66/192 87/68/189 37/68/124
f 42/47/144 81/47/165 88/66/193 41/66/140
f 43/34/33 50/29/40 47/30/37
f 44/31/34 45/32/35 32/35/30
f 45/32/35 44/31/34 49/28/39
f 45/60/35 51/53/41 52/54/42 46/62/36
f 46/33/36 32/35/30 45/32/35
f 46/62/36 52/54/42 54/56/44 50/58/40
f 47/30/37 63/25/151 24/26/22
f 48/27/38 49/28/39 44/31/34
f 49/28/39 48/27/38 64/24/159
f 49/57/39 53/55/43 51/53/41 45/60/35
f 49/28/39 64/24/157 50/29/40
f 50/29/40 43/34/33 46/33/36
f 50/58/40 54/56/44 53/55/43 49/57/39
f 50/29/40 64/24/154 63/25/146
f 51/53/41 55/41/45 56/42/46 52/54/42
f 52/54/42 56/42/46 58/46/48 54/56/44
f 53/55/43 57/43/47 55/41/45 51/53/41
f 54/56/44 58/46/48 57/43/47 53/55/43
f 55/41/45 59/37/49 60/38/50 56/42/46
f 56/42/46 60/38/50 62/40/52 58/46/48
f 57/43/47 61/39/51 59/37/49 55/41/45
f 58/46/48 62/40/52 61/39/51 57/43/47
f 63/25/150 47/30/37 50/29/40
f 63/2/147 75/4/61 65/3/160 23/1/111
f 64/19/155 74/17/60 73/5/59 63/2/148
f 64/19/156 76/16/62 69/15/55 74/17/60
f 65/3/161 75/4/61 76/16/62 66/18/163
f 67/14/53 74/17/60 69/15/55 68/12/54
f 67/14/53 77/13/63 80/9/66 72/8/58
f 68/12/54 78/11/64 77/13/63 67/14/53
f 69/15/55 70/6/56 71/7/57 68/12/54
f 69/15/55 76/16/62 75/4/61 70/6/56
f 70/6/56 73/5/59 72/8/58 71/7/57
f 71/7/57 79/10/65 78/11/64 68/12/54
f 72/8/58 73/5/59 74/17/60 67/14/53
f 72/8/58 80/9/66 79/10/65 71/7/57
f 73/5/59 70/6/56 75/4/61 63/2/149
f 78/11/64 79/10/65 80/9/66 77/13/63
f 81/47/167 89/47/67 96/66/74 88/66/195
f 82/48/170 90/48/68 89/47/67 81/47/166
f 83/49/174 91/49/69 90/48/68 82/48/171
f 84/50/178 92/50/70 91/49/69 83/49/175
f 85/65/182 93/65/71 92/50/70 84/50/179
f 86/67/186 94/67/72 93/65/71 85/65/183
f 87/68/190 95/68/73 94/67/72 86/67/187
f 88/66/194 96/66/74 95/68/73 87/68/191
f 90/48/68 91/49/69 92/50/70 93/65/71 94/67/72 95/68/73 96/66/74 89/47/67
f 97//75 104//82 103//81 102//80 101//79 100//78 99//77 98//76
f 97//75 105//197 112//218 104//82
f 98//76 106//201 105//198 97//75
f 99//77 107//204 106//200 98//76
f 100//78 108//207 107//203 99//77
f 101//79 109//210 108//206 100//78
f 102//80 110//213 109//209 101//79
f 103//81 111//216 110//212 102//80
f 104//82 112//219 111//215 103//81
f 106//199 107//202 108//205 109//208 110//211 111//214 112//217 105//196
f 113//83 120//90 119//89 118//88 117//87 116//86 115//85 114//84
f 113//83 121//220 128//249 120//90
f 114//84 122//225 121//221 113//83
f 115//85 123//229 122//224 114//84
f 116//86 124//233 123//228 115//85
f 117//87 125//237 124//232 116//86
f 118//88 126//241 125//236 117//87
f 119//89 127//245 126//240 118//88
f 120//90 128//250 127//244 119//89
f 121//223 129//91 140//102 128//252
f 122//226 130//92 129//91 121//222
f 123//230 131//93 130//92 122//227
f 124//234 132//94 131//93 123//231
f 125//238 133//95 132//94 124//235
f 126//242 139//101 133//95 125//239
f 127//246 139//101 126//243
f 127//248 140//102 139//101
f 128//251 140//102 127//247
f 129//91 134//96 141//103 140//102
f 130//92 135//97 134//96 129//91
f 131//93 136//98 135//97 130//92
f 132//94 137//99 136//98 131//93
f 133//95 138//100 137//99 132//94
f 135//97 142//104 141//103 134//96
f 136//98 143//105 142//104 135//97
f 137//99 144//106 143//105 136//98
f 138//100 145//107 144//106 137//99
f 139//101 145//107 138//100 133//95
f 140//102 141//103 142//104 143//105 144//106 145//107 139//101
