/* XPM */
static char *ufoded[] = {
/* columns rows colors chars-per-pixel */
"32 32 256 2",
"   c #020502",
".  c #040A05",
"X  c #090E09",
"o  c #011405",
"O  c #031D09",
"+  c #0D120D",
"@  c #031707",
"#  c #0F1510",
"$  c #0E1810",
"%  c #121913",
"&  c #171F19",
"*  c #03240B",
"=  c #052C0D",
"-  c #08260E",
";  c #0A280E",
":  c #032606",
">  c #052C11",
",  c #0B2310",
"<  c #0B2C13",
"1  c #063B0D",
"2  c #05350C",
"3  c #053111",
"4  c #0C3315",
"5  c #083C1C",
"6  c #0A3A14",
"7  c #1B231C",
"8  c #122516",
"9  c #15371C",
"0  c #1B3823",
"q  c #212C23",
"w  c #2B382E",
"e  c #273329",
"r  c #2D3C31",
"t  c #313F33",
"y  c #074A0E",
"u  c #0B4113",
"i  c #094A12",
"p  c #0C4A1B",
"a  c #0C441B",
"s  c #0E561D",
"d  c #0B5718",
"f  c #10421C",
"g  c #115C1D",
"h  c #0D4926",
"j  c #134A24",
"k  c #134E2A",
"l  c #184525",
"z  c #1F4E31",
"x  c #125122",
"c  c #135B21",
"v  c #19532A",
"b  c #18582A",
"n  c #1A5932",
"m  c #1C5432",
"M  c #11631F",
"N  c #076016",
"B  c #126524",
"V  c #1D6835",
"C  c #147626",
"Z  c #167929",
"A  c #1A732C",
"S  c #1C7E33",
"D  c #1B7134",
"F  c #0E7B25",
"G  c #214429",
"H  c #224A2B",
"J  c #204227",
"K  c #26512F",
"L  c #245432",
"P  c #2E5436",
"I  c #2E5738",
"U  c #304033",
"Y  c #3A4A3D",
"T  c #314B36",
"R  c #33553A",
"E  c #325C3B",
"W  c #345839",
"Q  c #236435",
"!  c #23683B",
"~  c #276539",
"^  c #267538",
"/  c #2F5D41",
"(  c #3E5142",
")  c #3B5A40",
"_  c #2A6E43",
"`  c #276440",
"'  c #326A43",
"]  c #336D49",
"[  c #3D6749",
"{  c #347244",
"}  c #337A45",
"|  c #39744D",
" . c #3E7755",
".. c #455849",
"X. c #455748",
"o. c #46644C",
"O. c #4D6351",
"+. c #4C6C52",
"@. c #457B54",
"#. c #447F59",
"$. c #4A7B5A",
"%. c #487554",
"&. c #556C5A",
"*. c #516755",
"=. c #54795D",
"-. c #59715D",
";. c #517659",
":. c #5C7561",
">. c #5F7864",
",. c #637D68",
"<. c #1C8C37",
"1. c #1D8433",
"2. c #1B9137",
"3. c #1E9C36",
"4. c #1E933C",
"5. c #198822",
"6. c #1FA239",
"7. c #248E3C",
"8. c #26953A",
"9. c #30AD3F",
"0. c #2B8B44",
"q. c #39854C",
"w. c #36974B",
"e. c #3F9453",
"r. c #279B46",
"t. c #2CA849",
"y. c #3DA753",
"u. c #32B04F",
"i. c #37BC59",
"p. c #26B848",
"a. c #2FCC55",
"s. c #36C655",
"d. c #39CB57",
"f. c #3ED75D",
"g. c #26CC4D",
"h. c #3DDA67",
"j. c #3CF361",
"k. c #46865D",
"l. c #50865F",
"z. c #4D8A62",
"x. c #568262",
"c. c #5B8464",
"v. c #5A8A66",
"b. c #5C8C69",
"n. c #558D66",
"m. c #5B906A",
"M. c #569771",
"N. c #4AA45E",
"B. c #45B55C",
"V. c #5AAF6C",
"C. c #5CB971",
"Z. c #65836A",
"A. c #63896B",
"S. c #69856E",
"D. c #6C8B73",
"F. c #63906E",
"G. c #649472",
"H. c #6B9D7A",
"J. c #6D9776",
"K. c #718F77",
"L. c #719077",
"P. c #709378",
"I. c #729A7B",
"U. c #6AA079",
"Y. c #70A47F",
"T. c #6BBB7C",
"R. c #45C45E",
"E. c #40CE61",
"W. c #4AC466",
"Q. c #4AD569",
"!. c #5DCA77",
"~. c #5AD779",
"^. c #5CDB7B",
"/. c #54DB6E",
"(. c #54EF58",
"). c #46E269",
"_. c #4AEF74",
"`. c #56F47B",
"'. c #68CF79",
"]. c #6DE17F",
"[. c #75FF7B",
"{. c #799B80",
"}. c #74A580",
"|. c #75AB85",
" X c #7DAB88",
".X c #7CB18B",
"XX c #5DFD84",
"oX c #76DB8C",
"OX c #7BC48A",
"+X c #66FB86",
"@X c #6DFD92",
"#X c #6DF592",
"$X c #71EF86",
"%X c #7CFF9D",
"&X c #72FF93",
"*X c #6EEF89",
"=X c #77FFA0",
"-X c #83A58A",
";X c #85AA8D",
":X c #88AD90",
">X c #86B18D",
",X c #84B490",
"<X c #8CB594",
"1X c #8BB995",
"2X c #8ABE99",
"3X c #89B794",
"4X c #93BF9C",
"5X c #8DC39C",
"6X c #85CC93",
"7X c #90C49C",
"8X c #92D09C",
"9X c #8FC7A0",
"0X c #93D9A2",
"qX c #9BC9A4",
"wX c #89FF9E",
"eX c #81FF9C",
"rX c #84FFA4",
"tX c #89FDAA",
"yX c #96FFBA",
"uX c #9DFFB6",
"iX c #92EDAA",
"pX c #A0D8AA",
"aX c #ACE6BA",
"sX c #ACE8B7",
"dX c #A1FFA4",
"fX c #AAFAB9",
"gX c #B0FEBE",
"hX c #B0FFB3",
"jX c #B0EBBA",
"kX c #9BFFC4",
"lX c #9DFFC9",
"zX c #A3FFC4",
"xX c #ADFFC7",
"cX c #B2FFC5",
"vX c #B7FFCD",
"bX c #BEFFCD",
"nX c #B1FFD3",
"mX c #BDFFD6",
"MX c #BCFFDE",
"NX c #B4FFD8",
"BX c #B6EDC4",
"VX c #BCFFE3",
"CX c #CBFFD6",
"ZX c #CAFFDD",
"AX c #D0FFDB",
"SX c #C2FFE5",
"DX c #C8FFE7",
"FX c #D6FFE2",
"GX c #DAFFE5",
"HX c #DBFFEE",
"JX c #D9FFFA",
"KX c #E5FEEC",
"LX c #ECFFFC",
"PX c #EAFFF7",
"IX c #F3FFFA",
"UX c #FDFFFF",
/* pixels */
"    .             . .   . . . . . . . .     .   o o o o o .     ",
". O ; O .   .   @ ; ; O O ; < 3 3 < 3 : o o * < 4 5 5 5 4 3 O . ",
"* d M a = : : 2 s C B c 5.9.<.3.s.s.d.7.a 4 c 2.1.A <.(.dXfXB.^ ",
"4 ^ w.^ 1 = = u A y.w.A 7.B.y.R.@X+X&XW.A c 7.~.!.C.C.[.hXHX#Xe.",
"1 6XIXpXu = = y V.IXGXt.0XIXIXUXUXUXUXUX!.t.gXUXUXUXIXUXUXUXPXoX",
"i 0XUXjXs : : N '.UXPXi.iXUXUXUXUXUXUXUX~.^.UXUXUXUXUXUXUXUXUXtX",
"d iXUXfXM = o y '.UXPXf.Q.%XwXnXNXuXyX&Xs.oXUXUXnXwXxXzXSXUXUX%X",
"g 0XUXcXF 1 1 N ].UXPXf./.eXrXzXlXyXMXyX`.%XLXJX+Xj.%XtXkXUXUX#X",
"g 0XUXbX3.d g F *XUXIXf.uXUXIXUXUXUXUXUX@X_.tXzXXXXXxXDXJXJXlX@X",
"s 8XUXbXp.Z Z <.+XLXGXf.gXUXIXHXIXUXUXUXtX@XVXVXtX%XtXrXVXUXVX@X",
"i 7XUXFXR.8.7.t.Q.`.Q.g.cXUXCX).Q.`.+X*XQ.yXUXUXVXkXzX%XkXUXUX#X",
"1 >XUXUXFXAXCXAXAXAXgXp.fXIXCXp.<.<.B.i.u.tXUXUXUXUXUXUXUXUXUX^.",
"= @.GXUXUXUXUXUXUXUXKXt.fXIXCX4.g d 7.0.S W.UXIXUXUXUXUXUXUXvXr.",
"O j U.sXgXfXaXaXsXaX8XS T.BXOXA u = p p u A *XmXSXJXZXmXMXnX~.2.",
". 3 c ^ 3.6.<.<.1.S B g M S B p 3 3 x b a M u.h.a.).`._.h.R.Q.0.",
"  @ 4 f c C C B d s p u p s p 3 * 3 s V V _ C.Q.s.t.4.4.1.r.0.! ",
"    o O ; u y y 1 = = = 2 = 3 = * f Q } n e.N.N.w.D B m b s f j ",
"  X + # $ , 4 6 1 = : : ; 4 4 4 l ~ ^ } q.q.} } Q Q m v k b h k ",
"& Y &.&.*.*.o.R 9 - : 7 Y ;.=.c.F.A.b.$.^ E @.v.b.b.x.$.[ L j n ",
"e S.<XI.>.-.,.D.;.H 4 H A.1X XA.l.l.;.[ L ' H.5X XG.F.J.H.v.` n ",
"w K.:X&.q & t ,.{.%.l P J.<Xv.K 9 9 9 f k { .X5XG. .]  .}..Xn._ ",
"w K.-X..% . % ..-XP.E E J.:X=.J < 4 f a j ] |.3Xz._ V _ m.2X.Xe.",
"w K.-XX.%   X Y ;X-XW E H.4XP.o.W W R H j | |.3Xz.! ! _ z.9X2Xz.",
"w K.-X..%   X Y :X:XX.T I.qX>XA.=.=.+.W v E Y.3X$.m h n  .9X9Xz.",
"w K.-X..%   + Y :X-X( t K.<XS.R G l 0 9 j _ }.,X$.m h n k.5X2X .",
"w K.-X..# . % X.-XK.t r K.-XO.9 < * < < 6 E }.,X$.n k l +..X|.] ",
"w K.:X&.q & w ,.I.O.7 w D.:X&.q % < 4 < 4 I }.3Xx.L l / M..XH.M.",
"w S.<X{.:.&.,.D.&.q # e S.<X{.,.*.*.*.E G P H.5X XA.b.I. X}.#.` ",
"% X.-.:.&.&.O.Y 7 X . & Y -.:.&.&.&.*.( q q [ >.c.n.m.x.[ z h h ",
"  X + # + # + .         X # # # # + # + . . X # % % < 8 , > 3 3 ",
"                                                                ",
"                                                                "
};
