/* XPM */
static char * uforadiant_xpm[] = {
"32 32 71 1",
" 	c None",
".	c #000000",
"+	c #0B2507",
"@	c #1F6614",
"#	c #266F1A",
"$	c #65A25B",
"%	c #081905",
"&	c #091E05",
"*	c #609F56",
"=	c #71AA67",
"-	c #071704",
";	c #39802D",
">	c #051103",
",	c #4D9042",
"'	c #8FBE87",
")	c #061604",
"!	c #020801",
"~	c #0E2D08",
"{	c #030C02",
"]	c #B7D7B2",
"^	c #2A731E",
"/	c #549649",
"(	c #010501",
"_	c #57984C",
":	c #DDECDA",
"<	c #16490E",
"[	c #5C9B51",
"}	c #0F3009",
"|	c #418635",
"1	c #7FB376",
"2	c #1B5811",
"3	c #519346",
"4	c #081C05",
"5	c #A7CDA0",
"6	c #86B87E",
"7	c #10350A",
"8	c #6AA560",
"9	c #2D7621",
"0	c #E4F0E2",
"a	c #367E2B",
"b	c #11380B",
"c	c #123C0B",
"d	c #133D0C",
"e	c #0C2707",
"f	c #C4DEC0",
"g	c #AFD2A9",
"h	c #78AF6E",
"i	c #D4E7D1",
"j	c #9FC898",
"k	c #79B070",
"l	c #95C28D",
"m	c #19500F",
"n	c #C2DDBE",
"o	c #D6E8D3",
"p	c #184D0F",
"q	c #B3D4AE",
"r	c #1C5B12",
"s	c #8ABA81",
"t	c #6CA762",
"u	c #93C08B",
"v	c #061303",
"w	c #000200",
"x	c #000100",
"y	c #15440D",
"z	c #3B8230",
"A	c #010400",
"B	c #010601",
"C	c #327A26",
"D	c #0A2206",
"E	c #206714",
"F	c #0E2F09",
"                ..              ",
"                ..              ",
"               .+.              ",
"              .@+.              ",
"     ..      .#$%.              ",
"     .&.    .@*=-.     ......   ",
"     .;>.    .,').   .!&~+>{.   ",
"     .$;>.   .#]).  .^///~(.    ",
"     ._:<{.   !_).  .[:=}>.     ",
"     .|'12{.  .34. .~567!.      ",
"     ..@;89>..._<..._07>.       ",
"       ..a;'bc#_,de.f<!.        ",
"         ..#g__=118h2{.         ",
"          .8i*$1'j5k).  ....    ",
"...........lj*$k'lj'~...29m).   ",
" ./n1___$loi'=_$=1'j|~p|1q'r).  ",
"  .9sns|<p$o5'kt*_='k$uk_,,,rv. ",
"   .#;d)..wgnj's=$$=#{!{{{!!(wx.",
"    .!..  .ji5j'k$$/).          ",
"         .bngjj1$_t_4..         ",
"        .-1sy9='|@mzld)...      ",
"       .p=j-..AsyB..C],m){.     ",
"      .w=i@>. .$D.  .#kj#>.     ",
"     .>ti1-.  .$c{.  .Eh*>.     ",
"    ..'f=@>   .k;{.   .#=>.     ",
"   .w;p7F).   .1kD.    .E4.     ",
"   .......    .k'd{.    .D.     ",
"              .$z>..     ..     ",
"              ./)..             ",
"              .b..              ",
"              ...               ",
"              ..                "};
