# This file uses centimeters as units for non-parametric coordinates.

mtllib insen_grenade.mtl
g default
v -0.243257 1.700389 0.307847
v 0.614022 1.700389 0.307847
v -0.243257 2.108496 0.233808
v 0.315697 2.123569 0.233808
v -0.243257 2.108496 -0.233808
v 0.315697 2.123569 -0.233808
v -0.243257 1.700389 -0.307847
v 0.614022 1.700389 -0.307847
v -0.325355 2.003989 0.248977
v -0.325355 2.003989 -0.248977
v 0.850897 -2.051301 0.188235
v 0.831016 -2.051301 -0.262432
v 0.588465 -2.051301 -0.642781
v 0.188235 -2.051301 -0.850897
v -0.262432 -2.051301 -0.831016
v -0.642781 -2.051301 -0.588465
v -0.850897 -2.051301 -0.188235
v -0.831016 -2.051301 0.262432
v -0.588465 -2.051301 0.642781
v -0.188235 -2.051301 0.850897
v 0.262432 -2.051301 0.831016
v 0.642781 -2.051301 0.588465
v 0.850897 1.523989 0.188235
v 0.831016 1.523989 -0.262432
v 0.588465 1.523989 -0.642781
v 0.188235 1.523989 -0.850897
v -0.262432 1.523989 -0.831016
v -0.642781 1.523989 -0.588465
v -0.850897 1.523989 -0.188235
v -0.831016 1.523989 0.262432
v -0.588465 1.523989 0.642781
v -0.188235 1.523989 0.850897
v 0.262432 1.523989 0.831016
v 0.642781 1.523989 0.588465
v 0.614022 1.700389 0.307847
v 0.614022 1.700389 -0.307847
v 0.909211 1.595216 -0.236545
v 0.909211 1.595216 0.236545
v 0.980966 -0.497805 -0.199052
v 0.980966 -0.497805 0.199052
v 0.873933 1.576371 -0.236545
v 0.873933 1.576371 0.236545
v 0.000000 -1.234992 -0.000000
v -0.237382 1.791419 0.237382
v 0.237382 1.791419 0.237382
v -0.237382 1.791419 -0.237382
v 0.237382 1.791419 -0.237382
v 0.475327 1.933044 0.327189
v 0.143379 1.943033 0.319280
v -0.100022 1.811951 0.503466
v -0.112297 1.616582 0.771854
v 0.113747 1.471371 0.967225
v 0.445694 1.461382 0.975134
v 0.689096 1.592464 0.790948
v 0.701370 1.787833 0.522561
v 0.450322 1.873948 0.350708
v 0.163640 1.882576 0.343878
v -0.046571 1.769368 0.502948
v -0.057171 1.600641 0.734737
v 0.138048 1.475232 0.903466
v 0.424730 1.466604 0.910297
v 0.634940 1.579812 0.751227
v 0.645541 1.748540 0.519438
v 0.451025 1.929183 0.390948
v 0.164343 1.937811 0.384117
v -0.045867 1.824603 0.543187
v -0.056467 1.655875 0.774976
v 0.138752 1.530467 0.943706
v 0.425433 1.521839 0.950537
v 0.635644 1.635047 0.791467
v 0.646244 1.803775 0.559678
v 0.241969 1.851997 0.414529
v 0.360482 1.851997 0.414529
v 0.241969 1.970510 0.414529
v 0.360482 1.970510 0.414529
v 0.301225 1.911254 -0.204036
vt 0.572747 0.787626
vt 0.575250 0.880017
vt 0.381170 0.885251
vt 0.446136 0.787626
vt 0.591982 0.810784
vt 0.350309 0.804394
vt 0.156160 0.804394
vt 0.446136 0.681724
vt 0.572747 0.787626
vt 0.596403 0.678289
vt 0.575249 0.880017
vt 0.591982 0.810784
vt 0.596403 0.791062
vt 0.381170 0.885251
vt 0.665160 0.804394
vt 0.350309 0.664956
vt 0.665160 0.664956
vt 0.156160 0.664956
vt 0.088544 0.004179
vt 0.163676 0.004179
vt 0.163676 0.659148
vt 0.088544 0.659148
vt 0.238808 0.004179
vt 0.238808 0.659148
vt 0.313939 0.004179
vt 0.313939 0.659148
vt 0.389071 0.004179
vt 0.389071 0.659148
vt 0.464203 0.004179
vt 0.464203 0.659148
vt 0.539334 0.004179
vt 0.539334 0.659148
vt 0.614466 0.004179
vt 0.614466 0.659148
vt 0.689598 0.004179
vt 0.689598 0.659148
vt 0.764729 0.004179
vt 0.764729 0.659148
vt 0.839861 0.004179
vt 0.839861 0.659148
vt 0.914993 0.004179
vt 0.914993 0.659148
vt 0.990125 0.004179
vt 0.990125 0.659148
vt 0.992179 0.871361
vt 0.992177 0.784947
vt 0.948969 0.710110
vt 0.874130 0.666905
vt 0.787716 0.666906
vt 0.712880 0.710115
vt 0.669675 0.784954
vt 0.669677 0.871369
vt 0.712886 0.946205
vt 0.787724 0.989410
vt 0.874138 0.989409
vt 0.948974 0.946200
vt 0.992177 0.784947
vt 0.992179 0.871361
vt 0.948974 0.946200
vt 0.874138 0.989408
vt 0.787724 0.989410
vt 0.712886 0.946205
vt 0.669677 0.871368
vt 0.669675 0.784954
vt 0.712880 0.710115
vt 0.787716 0.666906
vt 0.874130 0.666905
vt 0.948969 0.710110
vt 0.209385 0.996655
vt 0.209385 0.876133
vt 0.267955 0.890291
vt 0.267955 0.982498
vt 0.676509 0.897504
vt 0.676509 0.975285
vt 0.676509 0.897504
vt 0.676509 0.975285
vt 0.267842 0.989402
vt 0.267955 0.890291
vt 0.209385 0.996655
vt 0.209385 0.876133
vt 0.267842 0.883387
vt 0.267842 0.989402
vt 0.462880 0.788580
vt 0.009716 0.860350
vt 0.009716 0.789709
vt 0.009716 0.719040
vt 0.009715 0.650072
vt 0.009716 0.929235
vt 0.052238 0.085504
vt 0.052238 0.005463
vt 0.074631 0.005463
vt 0.007453 0.085504
vt 0.052238 0.165546
vt 0.007453 0.165546
vt 0.052238 0.245588
vt 0.007453 0.245588
vt 0.052238 0.325630
vt 0.007453 0.325630
vt 0.052238 0.405671
vt 0.007453 0.405671
vt 0.052238 0.485712
vt 0.007453 0.485712
vt 0.052238 0.565754
vt 0.007453 0.565754
vt 0.052238 0.645796
vt 0.007453 0.645796
vt 0.029846 0.005463
vt 0.029846 0.085504
vt 0.029846 0.165546
vt 0.029846 0.245588
vt 0.029846 0.325630
vt 0.029846 0.405671
vt 0.029846 0.485712
vt 0.029846 0.565754
vt 0.029846 0.645796
vt 0.074631 0.085504
vt 0.074631 0.165546
vt 0.074631 0.245588
vt 0.074631 0.325630
vt 0.074631 0.405671
vt 0.074631 0.485712
vt 0.007453 0.005463
vt 0.074631 0.645796
vt 0.074631 0.565754
vt 0.120881 0.997545
vt 0.079146 0.997545
vt 0.079072 0.955810
vt 0.120956 0.955810
vt 0.119981 0.734513
vt 0.203453 0.955810
vt 0.163024 0.955810
vt 0.038456 0.955810
vt 0.572747 0.681724
vt 0.446136 0.787626
vn -0.000000 0.172342 0.985037
vn -0.002407 0.175425 0.984490
vn -0.002407 0.175425 0.984490
vn -0.004814 0.178505 0.983927
vn -0.449261 0.893401 0.000000
vn 0.448329 0.893869 -0.000000
vn -0.449261 0.893401 0.000000
vn 0.448329 0.893869 0.000000
vn -0.045383 0.178324 -0.982925
vn -0.045383 0.178324 -0.982925
vn -0.045383 0.178324 -0.982925
vn 0.817323 0.576180 -0.000000
vn 0.817323 0.576180 -0.000000
vn -0.965328 -0.261040 0.000000
vn -0.965328 -0.261040 0.000000
vn -0.999381 0.035190 0.000000
vn -0.933557 0.358429 0.000000
vn -0.045382 0.178323 0.982925
vn -0.045382 0.178323 0.982925
vn -0.045382 0.178323 0.982925
vn 0.000000 0.172342 -0.985037
vn -0.002407 0.175425 -0.984490
vn -0.002407 0.175425 -0.984490
vn -0.004814 0.178505 -0.983927
vn 0.000000 -1.000000 0.000000
vn 0.000000 -1.000000 0.000000
vn 0.000000 -1.000000 0.000000
vn 0.000000 -1.000000 -0.000000
vn 0.953307 -0.000000 0.302003
vn 0.976590 0.000000 -0.215111
vn 0.991738 0.000000 0.128279
vn 0.923010 0.000000 -0.384776
vn 0.738196 0.000000 -0.674586
vn 0.606962 -0.000000 -0.794731
vn 0.302003 -0.000000 -0.953307
vn 0.128279 -0.000000 -0.991738
vn -0.215111 0.000000 -0.976590
vn -0.384776 0.000000 -0.923010
vn -0.674586 -0.000000 -0.738196
vn -0.794731 -0.000000 -0.606962
vn -0.953307 0.000000 -0.302004
vn -0.991738 0.000000 -0.128279
vn -0.976590 0.000000 0.215111
vn -0.923010 -0.000000 0.384776
vn -0.738196 0.000000 0.674586
vn -0.606962 -0.000000 0.794731
vn -0.302003 0.000000 0.953307
vn -0.128279 -0.000000 0.991738
vn 0.215111 -0.000000 0.976590
vn 0.384776 -0.000000 0.923010
vn 0.674586 -0.000000 0.738196
vn 0.794731 0.000000 0.606962
vn 0.000000 -1.000000 -0.000000
vn 0.000000 -1.000000 -0.000001
vn 0.000000 -1.000000 -0.000000
vn 0.000000 1.000000 0.000000
vn 0.000000 1.000000 0.000000
vn 0.000000 1.000000 0.000001
vn 0.335624 0.941996 0.000000
vn 0.335624 0.941996 0.000000
vn 0.335624 0.941996 0.000000
vn 0.335624 0.941996 0.000000
vn 0.999413 0.034263 -0.000000
vn 0.999413 0.034263 -0.000000
vn 0.999413 0.034263 -0.000000
vn 0.999413 0.034263 -0.000000
vn -0.998671 -0.051534 -0.000000
vn -0.998671 -0.051534 0.000000
vn -0.998671 -0.051534 0.000000
vn -0.998671 -0.051534 0.000000
vn -0.430644 -0.902522 0.000000
vn -0.430644 -0.902522 -0.000000
vn -0.430644 -0.902522 -0.000000
vn -0.430644 -0.902522 -0.000000
vn 0.074671 -0.139781 0.987363
vn 0.074671 -0.139781 0.987363
vn 0.009395 -0.017588 0.999801
vn 0.074670 -0.139781 -0.987363
vn 0.074670 -0.139781 -0.987363
vn 0.138501 -0.259269 -0.955823
vn 0.009395 -0.017588 -0.999801
vn 0.138501 -0.259270 0.955822
vn 0.000000 -1.000000 0.000000
vn 0.702796 -0.110250 0.702796
vn -0.702796 -0.110250 0.702796
vn -0.702796 -0.110250 -0.702796
vn 0.702796 -0.110250 -0.702796
vn -0.348265 0.554860 -0.755540
vn 0.416539 0.531844 -0.737318
vn -0.118056 -0.407914 -0.905356
vn 0.261490 -0.450395 -0.853679
vn -0.909060 0.252847 -0.331177
vn -0.433656 -0.535520 -0.724680
vn -0.937339 -0.197280 0.287185
vn -0.500437 -0.758464 -0.417487
vn -0.416539 -0.531845 0.737317
vn -0.279277 -0.946149 -0.163730
vn 0.348265 -0.554862 0.755540
vn 0.100269 -0.988630 -0.112054
vn 0.909060 -0.252848 0.331177
vn 0.415868 -0.861024 -0.292729
vn 0.937339 0.197280 -0.287185
vn 0.482648 -0.638081 -0.599920
vn 0.473196 -0.522664 0.709160
vn -0.288289 -0.561428 0.775685
vn 0.216789 -0.576629 0.787719
vn -0.536959 -0.492262 0.685093
vn 0.957488 -0.177729 0.227219
vn 0.843546 -0.323213 0.428910
vn 0.880897 0.271318 -0.387823
vn 0.976164 0.119537 -0.181147
vn 0.288288 0.561430 -0.775684
vn 0.536960 0.492264 -0.685092
vn -0.473196 0.522664 -0.709160
vn -0.216789 0.576630 -0.787719
vn -0.957488 0.177729 -0.227220
vn -0.843545 0.323213 -0.428911
vn -0.880897 -0.271316 0.387825
vn -0.976164 -0.119536 0.181148
vn 0.154060 0.980977 0.118113
vn -0.229382 0.961456 0.151609
vn -0.473244 0.787767 0.394289
vn -0.434677 0.561652 0.703991
vn -0.136273 0.415567 0.899296
vn 0.247169 0.435087 0.865798
vn 0.491032 0.608778 0.623119
vn 0.452465 0.834892 0.313417
vn -0.000000 0.000000 1.000000
vn -0.000000 0.000000 1.000000
vn -0.000000 0.000000 1.000000
vn -0.000000 0.000000 1.000000
vn -0.700706 0.700706 -0.134250
vn -0.000000 0.995443 -0.095360
vn -0.700706 0.700706 -0.134250
vn -0.000000 -0.995443 -0.095360
vn -0.000000 -0.995443 -0.095360
vn -0.000000 -0.995443 -0.095360
vn 0.995443 -0.000000 -0.095360
vn 0.995443 -0.000000 -0.095360
vn 0.995443 -0.000000 -0.095360
vn -0.995443 -0.000000 -0.095360
vn 0.000000 1.000000 -0.000000
vn 0.000000 1.000000 -0.000000
vn 0.000000 1.000000 -0.000000
vn 0.000000 1.000000 -0.000000
vn 0.000000 1.000000 -0.000000
vn 0.000000 1.000000 0.000000
vn 0.000000 1.000000 0.000000
vn 0.000000 1.000000 0.000000
vn 0.000000 1.000000 0.000001
vn 0.000000 -1.000000 -0.000000
vn 0.000000 -1.000000 -0.000000
vn 0.000000 -1.000000 0.000000
vn 0.000000 -1.000000 -0.000000
vn 0.000000 -1.000000 -0.000000
vn 0.000000 -1.000000 -0.000000
vn 0.000000 -1.000000 0.000000
vn 0.000000 -1.000000 0.000000
vn 0.000000 -1.000000 0.000000
s 1
g Smoke
usemtl lambert2SG
f 2/3/1 4/4/2 1/2/3
f 3/1/4 1/2/3 4/4/2
s 2
f 3/1/5 4/4/6 5/133/7
f 4/4/6 6/8/8 5/133/7
s off
f 5/9/9 7/11/10 10/12/11
s 2
f 2/6/12 8/16/13 4/4/6
f 8/16/13 6/8/8 4/4/6
f 7/17/14 1/15/15 10/10/16
f 1/15/15 9/13/17 10/10/16
f 10/10/16 9/13/17 5/133/7
f 9/13/17 3/1/5 5/133/7
s off
f 9/5/18 1/2/19 3/1/20
s 5
f 8/14/21 7/11/22 6/134/23
f 6/134/23 7/11/22 5/9/24
s 6
f 2/6/25 1/7/26 8/16/27
f 1/7/26 7/18/28 8/16/27
s 7
f 11/19/29 12/20/30 23/22/31
f 12/20/30 24/21/32 23/22/31
f 12/20/30 13/23/33 24/21/32
f 13/23/33 25/24/34 24/21/32
f 13/23/33 14/25/35 25/24/34
f 14/25/35 26/26/36 25/24/34
f 14/25/35 15/27/37 26/26/36
f 15/27/37 27/28/38 26/26/36
f 15/27/37 16/29/39 27/28/38
f 16/29/39 28/30/40 27/28/38
f 16/29/39 17/31/41 28/30/40
f 17/31/41 29/32/42 28/30/40
f 17/31/41 18/33/43 29/32/42
f 18/33/43 30/34/44 29/32/42
f 18/33/43 19/35/45 30/34/44
f 19/35/45 31/36/46 30/34/44
f 19/35/45 20/37/47 31/36/46
f 20/37/47 32/38/48 31/36/46
f 20/37/47 21/39/49 32/38/48
f 21/39/49 33/40/50 32/38/48
f 21/39/49 22/41/51 33/40/50
f 22/41/51 34/42/52 33/40/50
f 22/41/51 11/43/29 34/42/52
f 11/43/29 23/44/31 34/42/52
s 8
f 18/50/53 20/48/54 19/49/55
s 9
f 26/61/56 24/59/57 25/60/58
s 10
f 36/69/59 35/70/60 37/72/61
f 35/70/60 38/71/62 37/72/61
s 11
f 37/72/63 38/71/64 39/74/65
f 38/71/64 40/73/66 39/74/65
s 12
f 42/77/67 41/78/68 40/76/69
f 39/75/70 40/76/69 41/78/68
s 13
f 35/79/71 36/80/72 42/77/73
f 41/78/74 42/77/73 36/80/72
s 14
f 38/71/75 42/81/76 40/73/77
s 15
f 37/72/78 41/82/79 36/69/80
f 37/72/78 39/74/81 41/82/79
s 14
f 38/71/75 35/70/82 42/81/76
s 16
f 43/83/83 45/84/84 44/85/85
f 46/86/86 47/87/87 43/83/83
f 43/83/83 47/88/87 45/84/84
f 43/83/83 44/85/85 46/86/86
s 17
f 49/89/88 48/90/89 57/116/90
f 48/90/89 56/91/91 57/116/90
f 50/93/92 49/89/88 58/117/93
f 49/89/88 57/116/90 58/117/93
f 51/95/94 50/93/92 59/118/95
f 50/93/92 58/117/93 59/118/95
f 52/97/96 51/95/94 60/119/97
f 51/95/94 59/118/95 60/119/97
f 53/99/98 52/97/96 61/120/99
f 52/97/96 60/119/97 61/120/99
f 54/101/100 53/99/98 62/121/101
f 53/99/98 61/120/99 62/121/101
f 55/103/102 54/101/100 63/124/103
f 54/101/100 62/121/101 63/124/103
f 48/105/89 55/103/102 56/123/91
f 55/103/102 63/124/103 56/123/91
s 18
f 57/92/104 56/122/105 65/108/106
f 56/122/105 64/107/107 65/108/106
f 58/94/108 57/92/104 66/109/109
f 57/92/104 65/108/106 66/109/109
f 59/96/110 58/94/108 67/110/111
f 58/94/108 66/109/109 67/110/111
f 60/98/112 59/96/110 68/111/113
f 59/96/110 67/110/111 68/111/113
f 61/100/114 60/98/112 69/112/115
f 60/98/112 68/111/113 69/112/115
f 62/102/116 61/100/114 70/113/117
f 61/100/114 69/112/115 70/113/117
f 63/104/118 62/102/116 71/114/119
f 62/102/116 70/113/117 71/114/119
f 56/106/105 63/104/118 64/115/107
f 63/104/118 71/114/119 64/115/107
s 17
f 48/90/89 49/89/88 64/107/120
f 65/108/121 64/107/120 49/89/88
f 49/89/88 50/93/92 65/108/121
f 66/109/122 65/108/121 50/93/92
f 50/93/92 51/95/94 66/109/122
f 67/110/123 66/109/122 51/95/94
f 51/95/94 52/97/96 67/110/123
f 68/111/124 67/110/123 52/97/96
f 52/97/96 53/99/98 68/111/124
f 69/112/125 68/111/124 53/99/98
f 53/99/98 54/101/100 69/112/125
f 70/113/126 69/112/125 54/101/100
f 54/101/100 55/103/102 70/113/126
f 71/114/127 70/113/126 55/103/102
f 55/103/102 48/105/89 71/114/127
f 64/115/120 71/114/127 48/105/89
s 19
f 72/125/128 73/126/129 74/128/130
f 73/126/129 75/127/131 74/128/130
s 20
f 74/128/132 75/127/133 76/129/134
s off
f 76/129/135 73/130/136 72/131/137
f 73/132/138 76/129/139 75/127/140
s 20
f 76/129/134 72/131/141 74/128/132
s 9
f 27/62/142 23/58/143 26/61/56
f 23/58/143 24/59/57 26/61/56
f 34/57/144 23/58/143 28/63/145
f 23/58/143 27/62/142 28/63/145
f 34/57/144 28/63/145 33/68/146
f 28/63/145 29/64/147 33/68/146
f 33/68/146 29/64/147 32/67/148
f 29/64/147 30/65/149 32/67/148
f 32/67/148 30/65/149 31/66/150
s 8
f 17/51/151 21/47/152 18/50/53
f 21/47/152 20/48/54 18/50/53
f 22/46/153 16/52/154 11/45/155
f 11/45/155 16/52/154 15/53/156
f 16/52/154 22/46/153 17/51/151
f 22/46/153 21/47/152 17/51/151
f 11/45/155 15/53/156 12/56/157
f 15/53/156 14/54/158 12/56/157
f 12/56/157 14/54/158 13/55/159
