# Exported from Wings 3D 0.98.36
mtllib head.mtl
o head
#157 vertices, 283 faces
v 0.44921900 76.50390600 -4.47265600
v -0.51562500 76.30078100 -4.21875000
v -0.44921900 76.50390600 -4.47265600
v 1.11718800 76.94140600 -4.06640600
v 0.51562500 76.30078100 -4.21875000
v 0.19531300 77.03515600 -4.45312500
v -1.11718800 76.94140600 -4.06640600
v -0.19140600 77.03515600 -4.45312500
v 0.0000000e+0 76.98437500 -2.47656300
v -7.8130000e-3 82.77343800 -3.45703100
v -0.41406300 80.39843800 -4.25000000
v -1.10156300 80.64843800 -4.05859400
v 2.18750000 80.62109400 -3.79296900
v 1.10156300 80.64843800 -4.05859400
v 2.09765600 82.69531300 -2.75390600
v 0.0000000e+0 83.83203100 -3.67187500
v 2.58203100 83.51562500 -2.79296900
v -2.09765600 82.69531300 -2.75390600
v -2.58203100 83.51562500 -2.79296900
v 0.41406300 80.39843800 -4.25000000
v 1.13281300 80.29687500 -3.70703100
v 1.66406300 80.26562500 -3.66796900
v -0.17968800 79.92578100 -4.12890600
v 0.17968800 79.92578100 -4.12890600
v -2.18750000 80.62109400 -3.79296900
v -1.14062500 80.29687500 -3.70703100
v -0.71484400 79.81250000 -3.48828100
v 1.66796900 79.61328100 -3.59375000
v 1.14062500 80.05859400 -3.75000000
v 1.66796900 80.04687500 -3.71093800
v 1.15234400 79.61718800 -3.62890600
v 1.41406300 78.96875000 -3.91406300
v 2.38281300 78.87109400 -3.74218800
v 2.05468800 79.80468800 -3.31250000
v 2.67968800 79.78906300 -2.87109400
v 0.70703100 79.81250000 -3.48828100
v 0.41015600 79.18750000 -4.00390600
v -1.67187500 80.04687500 -3.71093800
v -1.14453100 80.05859400 -3.75000000
v -1.67578100 79.61328100 -3.59375000
v -1.67187500 80.26562500 -3.66796900
v -2.06640600 79.80468800 -3.31250000
v -2.38281300 78.87109400 -3.74218800
v -1.41406300 78.96875000 -3.91406300
v -2.67968800 79.78906300 -2.87109400
v -1.16015600 79.61718800 -3.62890600
v -0.41015600 79.18750000 -4.00390600
v -3.33984400 82.22265600 0.74218800
v -2.70703100 84.41796900 -7.4219000e-2
v -3.50390600 81.75000000 -1.12890600
v -2.63671900 84.16406300 2.46484400
v -3.23828100 82.25781300 2.99218800
v -3.29687500 79.89062500 0.85937500
v -3.13671900 80.13671900 -0.19921900
v -2.52734400 77.98828100 1.36328100
v -2.76562500 79.21484400 3.07421900
v -3.03125000 81.50390600 -1.69140600
v 3.5156000e-2 84.89062500 -1.89453100
v 3.1250000e-2 85.29687500 1.55078100
v 2.70703100 84.41796900 -7.4219000e-2
v 2.63671900 84.16406300 2.46484400
v 3.33984400 82.22265600 0.74218800
v 3.50390600 81.75000000 -1.12890600
v 3.29687500 79.89062500 0.85937500
v 3.23828100 82.25781300 2.99218800
v 3.13671900 80.13671900 -0.19921900
v 2.52734400 77.98828100 1.36328100
v 2.76562500 79.21484400 3.07421900
v 3.03125000 81.50390600 -1.69140600
v -2.98828100 77.98828100 -0.13671900
v -1.03906300 76.25000000 2.71875000
v 6.6406000e-2 77.52343800 3.88671900
v -2.3438000e-2 79.62500000 4.58203100
v 1.03906300 76.25000000 2.71875000
v 3.1250000e-2 82.06640600 4.76171900
v 0.87109400 75.23046900 3.01171900
v -0.85156300 75.23046900 3.01171900
v 2.08984400 76.25781300 -5.0781000e-2
v 2.19140600 75.06640600 0.62890600
v -2.08984400 76.25781300 -5.0781000e-2
v -2.47265600 76.46093800 -0.53125000
v -2.64453100 78.41015600 -2.63671900
v 2.98828100 77.98828100 -0.13671900
v 2.47265600 76.46093800 -0.53125000
v 0.85156300 75.35937500 -1.48437500
v -0.85156300 75.35937500 -1.48437500
v -2.21093800 75.06640600 0.62890600
v -0.71093800 77.90234400 -4.50000000
v -0.35937500 77.44531300 -4.66015600
v 0.71093800 77.90234400 -4.50000000
v -0.17578100 78.16406300 -5.09375000
v -1.72656300 76.62890600 -3.62109400
v -0.19140600 77.03125000 -4.43359400
v -1.19921900 75.73046900 -3.57421900
v -0.40625000 75.50000000 -4.25390600
v -0.47265600 75.07031300 -3.80468800
v 0.40625000 75.50000000 -4.25390600
v 0.47265600 75.07031300 -3.80468800
v -0.59765600 74.29687500 -1.26953100
v 0.57812500 74.29687500 -1.26953100
v 2.64453100 78.41015600 -2.63671900
v 1.19921900 75.73046900 -3.57421900
v 1.72656300 76.62890600 -3.62109400
v -0.26953100 78.49218800 -5.29296900
v 0.26953100 78.49218800 -5.29296900
v 0.17578100 78.16406300 -5.09375000
v -1.9531000e-2 84.03906300 3.93359400
v 0.35937500 77.44531300 -4.66015600
v 0.19140600 77.03125000 -4.43359400
v -26.13281300 49.08203100 3.60937500
v -22.10546900 51.24609400 2.99218800
v -22.71875000 51.76953100 1.48046900
v -27.99218800 45.87500000 0.50000000
v -27.76171900 45.64453100 2.90234400
v -27.35937500 45.31640600 3.25781300
v -27.58593800 45.47656300 0.40625000
v -25.27343800 48.20312500 3.74609400
v -25.53906300 48.33984400 8.2031000e-2
v -21.47656300 50.63671900 1.25781300
v -26.12890600 49.07031300 0.27734400
v -22.28515600 51.31640600 0.39843800
v -24.69921900 48.41796900 -0.50390600
v -23.83593800 47.98046900 -0.41015600
v -25.28515600 46.32421900 0.17578100
v -25.12890600 46.21875000 -0.28906300
v -25.64453100 46.48046900 -0.34765600
v -24.09765600 48.15625000 0.37109400
v 27.76171900 45.64453100 2.90234400
v 27.99218800 45.87500000 0.50000000
v 26.13281300 49.08203100 3.60937500
v 27.58593800 45.47656300 0.40625000
v 27.35937500 45.31640600 3.25781300
v 25.27343800 48.20312500 3.74609400
v 26.12890600 49.07031300 0.27734400
v 22.81640600 51.60546900 1.48046900
v 22.10546900 51.24609400 2.99218800
v 25.53906300 48.33984400 8.2031000e-2
v 22.28515600 51.31640600 0.39843800
v 21.47656300 50.63671900 1.25781300
v 24.69921900 48.41796900 -0.50390600
v 23.83593800 47.98046900 -0.41015600
v 25.12890600 46.21875000 -0.28906300
v 25.28515600 46.32421900 0.17578100
v 24.09765600 48.15625000 0.37109400
v 25.64453100 46.48046900 -0.34765600
v 0.38671900 76.67187500 -4.16015600
v 1.24609400 77.02343800 -3.57031300
v 0.35156300 77.02343800 -4.16015600
v -0.38671900 76.67187500 -4.16015600
v -0.35156300 77.02343800 -4.16015600
v -1.24609400 77.02343800 -3.57031300
v -0.35546900 77.01953100 -4.16796900
v -1.26171900 77.02343800 -3.57031300
v -0.38671900 77.48437500 -4.16015600
v 0.38671900 77.48437500 -4.16015600
v 0.35546900 77.01953100 -4.16796900
v 1.26171900 77.02343800 -3.57031300
vt 0.0000000e+0 0.14117600
vt 0.0000000e+0 0.22352900
vt 0.0000000e+0 0.68235300
vt 0.0000000e+0 0.71764700
vt 0.0000000e+0 0.77647100
vt 0.0000000e+0 0.85882400
vt 0.0000000e+0 0.97647100
vt 0.0000000e+0 1.00000000
vt 5.0980000e-2 0.13333300
vt 6.2745000e-2 0.37254900
vt 6.2745000e-2 0.55686300
vt 6.2745000e-2 0.63921600
vt 7.8431000e-2 0.27058800
vt 0.12156900 0.68235300
vt 0.12549000 0.29411800
vt 0.12549000 0.70588200
vt 0.12549000 1.00000000
vt 0.12941200 0.87843100
vt 0.13333300 0.14509800
vt 0.13333300 0.85098000
vt 0.13333300 0.85490200
vt 0.13725500 0.28627500
vt 0.13725500 0.36470600
vt 0.13725500 0.63529400
vt 0.13725500 0.64313700
vt 0.13725500 0.65882400
vt 0.13725500 0.71372500
vt 0.14117600 0.30980400
vt 0.14117600 0.37647100
vt 0.14902000 0.42352900
vt 0.16078400 0.58039200
vt 0.16862700 0.36470600
vt 0.16862700 0.38823500
vt 0.16862700 0.40000000
vt 0.17647100 0.16078400
vt 0.20000000 0.36470600
vt 0.20392200 0.38823500
vt 0.20392200 0.40000000
vt 0.20784300 0.12549000
vt 0.20784300 0.20784300
vt 0.21176500 0.32156900
vt 0.21568600 0.34902000
vt 0.21568600 0.65098000
vt 0.22352900 0.37254900
vt 0.22745100 0.42352900
vt 0.22745100 0.64313700
vt 0.22745100 0.65882400
vt 0.22745100 0.68235300
vt 0.24313700 7.8430000e-3
vt 0.24313700 7.4510000e-2
vt 0.24313700 0.25098000
vt 0.24313700 1.00000000
vt 0.24705900 0.83529400
vt 0.24705900 0.87843100
vt 0.25882400 0.28627500
vt 0.25882400 0.71372500
vt 0.26274500 0.10588200
vt 0.26274500 0.40784300
vt 0.27058800 0.14902000
vt 0.27451000 0.16470600
vt 0.27843100 0.12941200
vt 0.27843100 0.33333300
vt 0.28235300 0.22745100
vt 0.29019600 0.27843100
vt 0.29019600 0.70980400
vt 0.29019600 0.83921600
vt 0.29411800 0.19607800
vt 0.29411800 0.20784300
vt 0.29411800 0.26666700
vt 0.29411800 0.38431400
vt 0.30588200 0.20392100
vt 0.30588200 0.58823500
vt 0.31764700 0.26666700
vt 0.31764700 0.38431400
vt 0.31764700 0.63137300
vt 0.31764700 0.73333300
vt 0.31764700 0.82745100
vt 0.32156900 0.19607800
vt 0.32156900 0.20784300
vt 0.32156900 0.27843100
vt 0.32941200 0.22745100
vt 0.33333300 0.12941200
vt 0.33725500 0.33333300
vt 0.34117600 0.16470600
vt 0.34509800 0.10588200
vt 0.34509800 0.14902000
vt 0.34509800 0.40784300
vt 0.36470600 7.8430000e-3
vt 0.36470600 7.4510000e-2
vt 0.36470600 0.25098000
vt 0.36470600 0.90196100
vt 0.38431400 0.37647100
vt 0.38823500 0.42352900
vt 0.40000000 0.20784300
vt 0.40392200 0.12941200
vt 0.40392200 0.32156900
vt 0.41176500 0.36470600
vt 0.41176500 0.38823500
vt 0.41176500 0.40000000
vt 0.43137300 0.16078400
vt 0.44705900 0.36470600
vt 0.44705900 0.38823500
vt 0.44705900 0.40000000
vt 0.44705900 0.61176500
vt 0.45098000 0.57647100
vt 0.45882400 0.71764700
vt 0.46666700 0.42352900
vt 0.47058800 0.30588200
vt 0.47451000 0.37647100
vt 0.51764700 0.80000000
vt 0.51764700 0.94902000
vt 0.52156900 0.26666700
vt 0.54117600 0.56078400
vt 0.54902000 0.37254900
vt 0.55686300 0.59215700
vt 0.56078400 0.13333300
vt 0.58823500 0.65490200
vt 0.63921600 0.76078400
vt 0.65490200 7.8430000e-3
vt 0.65490200 9.4118000e-2
vt 0.66274500 0.25882400
vt 0.67058800 0.41176500
vt 0.67451000 0.52549000
vt 0.69019600 0.58039200
vt 0.73333300 0.90588200
vt 0.80000000 0.24313700
vt 0.81960800 0.70980400
vt 0.86666700 0.56078400
vt 0.87843100 7.8430000e-3
vt 0.87843100 9.8039000e-2
vt 0.87843100 0.87451000
vt 0.87843100 0.90196100
vt 0.87843100 0.99215700
vt 0.91764700 0.11764700
vt 0.91764700 0.28235300
vt 0.91764700 0.71764700
vt 0.98431400 0.75686300
vt 0.98431400 0.97254900
vt 0.99215700 7.8430000e-3
vt 0.99215700 9.8039000e-2
vt 0.99215700 0.10588200
vt 0.99215700 0.14509800
vt 0.99215700 0.25490200
vt 0.99215700 0.29411800
vt 0.99215700 0.70588200
vt 0.99215700 0.74509800
vn 0.24953678 -0.42169514 -0.87172507
vn -0.32252618 -0.36593947 -0.87296344
vn -0.24485426 -0.22479367 -0.94314060
vn 0.50048475 -0.23424616 -0.83345291
vn 0.42044589 -0.34196450 -0.84040795
vn 0.13156804 0.62377356 -0.77045207
vn -0.50031807 -0.23395002 -0.83363614
vn -0.16348782 0.76613433 -0.62153836
vn 4.8494002e-2 -0.11451552 0.99223713
vn -5.0271180e-4 0.17503886 -0.98456140
vn -0.30346139 -0.25599706 -0.91781081
vn -0.22659415 -0.27311267 -0.93491420
vn 0.53037482 -6.9558576e-2 -0.84490482
vn 0.22675135 -0.27466366 -0.93442158
vn 0.53979607 4.1361649e-2 -0.84077905
vn 3.8883038e-4 0.40733858 -0.91327714
vn 0.61822245 0.20592576 -0.75854834
vn -0.54076582 4.0990570e-2 -0.84017385
vn -0.61770927 0.20828107 -0.75832332
vn 0.25757589 -0.25760597 -0.93128611
vn 8.2962670e-2 -0.29334756 -0.95239929
vn 0.26868915 -0.32944090 -0.90513802
vn -0.42382744 0.12317181 -0.89732882
vn 0.58976416 7.5399419e-2 -0.80404798
vn -0.53183793 -6.7916609e-2 -0.84411833
vn -8.1187911e-2 -0.29126230 -0.95319190
vn -0.19482110 -0.10568803 -0.97512808
vn 0.25030652 0.10241629 -0.96273441
vn -0.15978916 -9.9793197e-2 -0.98209406
vn 0.35123411 1.1279693e-2 -0.93621972
vn -1.2218742e-2 0.21957843 -0.97551833
vn 0.16121748 0.40239053 -0.90116080
vn 0.58600060 0.14372054 -0.79746330
vn 0.54416520 -1.6905849e-2 -0.83880774
vn 0.91668516 -3.0270564e-2 -0.39846205
vn 0.19893958 -0.10664909 -0.97419147
vn 0.57374460 0.41734074 -0.70472962
vn -0.34731406 9.3539024e-3 -0.93770222
vn 0.16152755 -9.8879075e-2 -0.98190212
vn -0.24907635 0.10217249 -0.96307931
vn -0.26610513 -0.33015749 -0.90564016
vn -0.54316963 -1.8105604e-2 -0.83942774
vn -0.58679251 0.14220573 -0.79715249
vn -0.16114616 0.40149622 -0.90157235
vn -0.91731753 -2.9923051e-2 -0.39703043
vn 1.2522201e-2 0.21845872 -0.97576584
vn -0.57274935 0.41645166 -0.70606388
vn -0.98357940 0.17362903 4.9239373e-2
vn -0.71533438 0.69458383 -7.6485410e-2
vn -0.96935432 -5.7394607e-2 -0.23886829
vn -0.65521183 0.60616354 0.45084723
vn -0.88327327 0.10660298 0.45657872
vn -0.97597058 -0.21790137 -6.4125708e-4
vn -0.95578242 -0.24607947 -0.16101199
vn -0.90729185 -0.38302646 0.17352876
vn -0.72235200 -0.28018025 0.63222355
vn -0.85237035 -0.11712238 -0.50965393
vn 2.8261370e-3 0.94599670 -0.32416394
vn 2.5012623e-3 0.98717352 0.15963141
vn 0.71799891 0.69187219 -7.6094911e-2
vn 0.65458697 0.60771294 0.44966753
vn 0.98357940 0.17362903 4.9239373e-2
vn 0.96935432 -5.7394607e-2 -0.23886829
vn 0.97597058 -0.21790137 -6.4125708e-4
vn 0.88466833 0.10633677 0.45393220
vn 0.95578242 -0.24607947 -0.16101199
vn 0.90729185 -0.38302646 0.17352876
vn 0.72488802 -0.27978917 0.62948819
vn 0.85237035 -0.11712238 -0.50965393
vn -0.96987752 -0.22393371 9.5871227e-2
vn -0.60999435 -0.18774101 0.76984427
vn 5.8856161e-3 -0.43650037 0.89968482
vn -1.7932716e-3 -0.19663960 0.98047420
vn 0.68389198 -0.25935838 0.68192741
vn -8.0128939e-4 0.17204309 0.98508910
vn 0.31357845 -0.15452694 0.93690447
vn -0.43196626 -0.35803204 0.82777908
vn 0.89966043 -0.40045268 0.17392168
vn 0.93595939 -0.35183474 -1.3868168e-2
vn -0.90131607 -0.39707474 0.17309242
vn -0.82396103 -0.56596645 -2.7752507e-2
vn -0.95117902 -0.20415173 -0.23147470
vn 0.96987752 -0.22393371 9.5871227e-2
vn 0.82396103 -0.56596645 -2.7752507e-2
vn 0.48946267 -0.77223508 -0.40506700
vn -0.59576733 -0.72580024 -0.34391177
vn -0.93782022 -0.34682468 -1.4348144e-2
vn -0.43485310 -5.8445410e-2 -0.89860276
vn -0.15078990 -0.18083015 -0.97188624
vn 0.36256161 -0.12438368 -0.92362210
vn -0.12890029 -0.77162855 -0.62287566
vn -0.73654753 -0.33868051 -0.58548548
vn -5.1535149e-2 -0.86640998 -0.49666677
vn -0.71287658 -0.54062533 -0.44668919
vn -0.37038697 -0.35318606 -0.85911181
vn -0.25561701 -0.90653118 -0.33594816
vn 0.24790273 -0.36573493 -0.89709654
vn 0.38296802 -0.85958471 -0.33830404
vn -0.26567082 -0.56701751 -0.77968593
vn 0.36694881 -0.69721834 -0.61582073
vn 0.95117902 -0.20415173 -0.23147470
vn 0.71287658 -0.54062533 -0.44668919
vn 0.73654753 -0.33868051 -0.58548548
vn -0.53365338 -8.9073125e-2 -0.84099944
vn 0.53567843 0.17467402 -0.82615835
vn 0.12809987 -0.66210750 -0.73837937
vn -2.4759431e-3 0.68652117 0.72710560
vn 0.22476404 -0.22843129 -0.94725935
vn 4.1113877e-2 -0.80111432 -0.59709757
vn -0.62912345 0.50209489 0.59338387
vn 0.42206712 0.48620611 0.76515552
vn -0.23497333 0.97164293 -2.6411032e-2
vn -0.84311552 8.5018738e-2 -0.53096896
vn -0.90551835 -0.30602989 0.29390853
vn 7.9946207e-2 -0.75198292 0.65431666
vn -0.30131490 -0.84442902 -0.44288708
vn 0.53418675 -0.53636448 0.65341997
vn 0.21320817 -0.79961055 -0.56139580
vn 0.82854144 -0.48873617 0.27323258
vn -0.60026630 0.48297085 -0.63751041
vn 0.22491129 0.53013079 -0.81754281
vn -0.47543505 -1.3162593e-3 -0.87974984
vn 0.77188338 -0.48642352 -0.40937540
vn -0.14484508 -0.50142228 0.85299214
vn 0.18010525 -0.71149934 -0.67921336
vn -0.84390975 -0.46575343 -0.26625190
vn 0.12120879 -0.68572758 0.71769500
vn 0.90551835 -0.30602989 0.29390853
vn 0.84311552 8.5018738e-2 -0.53096896
vn 0.63152884 0.50834570 0.58545365
vn 0.30131490 -0.84442902 -0.44288708
vn -7.9946207e-2 -0.75198292 0.65431666
vn -0.53418675 -0.53636448 0.65341997
vn 0.60339964 0.49223001 -0.62739022
vn 0.25726762 0.96612707 -2.0294520e-2
vn -0.38342693 0.52985233 0.75646566
vn -0.21320817 -0.79961055 -0.56139580
vn -0.19837446 0.55975268 -0.80456480
vn -0.82832754 -0.48289834 0.28404696
vn 0.47543505 -1.3162593e-3 -0.87974984
vn -0.77188338 -0.48642352 -0.40937540
vn -0.18010525 -0.71149934 -0.67921336
vn 0.14484508 -0.50142228 0.85299214
vn -0.12120879 -0.68572758 0.71769500
vn 0.84390975 -0.46575343 -0.26625190
vn 0.28703874 9.8513374e-3 -0.95786832
vn 0.95689187 3.2841088e-2 0.28858173
vn 0.55008831 1.8879352e-2 -0.83489306
vn -0.55008831 1.8879352e-2 -0.83489306
vn -0.28703874 9.8513374e-3 -0.95786832
vn -0.95689187 3.2841088e-2 0.28858173
vn -0.28742039 9.5021932e-3 -0.95775739
vn -0.95734326 -2.6804395e-2 0.28770716
vn -0.55066152 1.3935953e-3 -0.83472747
vn 0.28742039 9.5021932e-3 -0.95775739
vn 0.55066152 1.3935953e-3 -0.83472747
vn 0.95734326 -2.6804395e-2 0.28770716
g head_Mat
usemtl Mat
f 1/60/1 5/59/5 2/86/2
f 1/60/1 6/67/6 4/40/4
f 2/86/2 3/84/3 1/60/1
f 2/86/2 7/94/7 3/84/3
f 2/86/2 92/100/92 7/94/7
f 2/86/2 94/95/94 92/100/92
f 2/86/2 95/82/95 94/95/94
f 2/86/2 97/61/97 95/82/95
f 3/84/3 6/67/6 1/60/1
f 3/84/3 8/78/8 6/67/6
f 4/40/4 5/59/5 1/60/1
f 4/40/4 90/51/90 33/28/33
f 4/40/4 103/35/103 5/59/5
f 4/40/4 108/63/108 90/51/90
f 4/40/4 109/68/109 108/63/108
f 5/59/5 97/61/97 2/86/2
f 5/59/5 102/39/102 97/61/97
f 5/59/5 103/35/103 102/39/102
f 6/67/6 9/71/9 4/40/4
f 7/94/7 8/78/8 3/84/3
f 7/94/7 9/71/9 8/78/8
f 7/94/7 92/100/92 43/108/43
f 7/94/7 93/79/93 9/71/9
f 8/78/8 9/71/9 6/67/6
f 9/71/9 109/68/109 4/40/4
f 10/72/10 15/31/15 13/30/13
f 10/72/10 17/104/17 15/105/15
f 10/72/10 19/104/19 16/75/16
f 10/72/10 20/58/20 11/87/11
f 10/72/10 25/107/25 18/105/18
f 11/87/11 12/93/12 10/72/10
f 11/87/11 26/99/26 12/93/12
f 11/87/11 27/92/27 26/99/26
f 12/93/12 25/107/25 10/72/10
f 12/93/12 41/103/41 25/107/25
f 13/30/13 14/45/14 10/72/10
f 13/30/13 22/34/22 14/45/14
f 13/30/13 34/29/34 22/34/22
f 13/30/13 35/10/35 34/29/34
f 13/30/13 69/11/69 35/10/35
f 14/45/14 20/58/20 10/72/10
f 14/45/14 21/38/21 20/58/20
f 14/45/14 22/34/22 21/38/21
f 15/31/15 69/11/69 13/30/13
f 16/75/16 17/104/17 10/72/10
f 16/75/16 58/76/58 17/104/17
f 17/104/17 69/113/69 15/105/15
f 18/105/18 19/104/19 10/72/10
f 18/105/18 57/113/57 19/104/19
f 19/104/19 50/115/50 49/106/49
f 19/104/19 57/113/57 50/115/50
f 19/104/19 58/76/58 16/75/16
f 20/58/20 23/74/23 11/87/11
f 20/58/20 24/70/24 23/74/23
f 20/58/20 36/44/36 24/70/24
f 21/38/21 30/33/30 29/37/29
f 21/38/21 36/44/36 20/58/20
f 22/34/22 30/33/30 21/38/21
f 22/34/22 34/29/34 30/33/30
f 23/74/23 27/92/27 11/87/11
f 23/74/23 47/83/47 27/92/27
f 23/74/23 104/80/104 47/83/47
f 23/74/23 105/64/105 104/80/104
f 24/70/24 105/64/105 23/74/23
f 25/107/25 57/113/57 18/105/18
f 26/99/26 39/98/39 38/102/38
f 26/99/26 41/103/41 12/93/12
f 27/92/27 39/98/39 26/99/26
f 27/92/27 46/97/46 39/98/39
f 27/92/27 47/83/47 46/97/46
f 28/32/28 31/36/31 29/37/29
f 28/32/28 32/41/32 31/36/31
f 28/32/28 33/28/33 32/41/32
f 28/32/28 34/29/34 33/28/33
f 29/37/29 30/33/30 28/32/28
f 29/37/29 36/44/36 21/38/21
f 30/33/30 34/29/34 28/32/28
f 31/36/31 36/44/36 29/37/29
f 31/36/31 37/62/37 36/44/36
f 32/41/32 37/62/37 31/36/31
f 32/41/32 90/51/90 37/62/37
f 33/28/33 90/51/90 32/41/32
f 33/28/33 103/35/103 4/40/4
f 34/29/34 35/10/35 33/28/33
f 35/114/35 69/113/69 66/122/66
f 35/10/35 101/13/101 33/28/33
f 36/44/36 37/62/37 24/70/24
f 37/62/37 105/64/105 24/70/24
f 38/102/38 41/103/41 26/99/26
f 38/102/38 42/109/42 41/103/41
f 39/98/39 40/101/40 38/102/38
f 39/98/39 46/97/46 40/101/40
f 40/101/40 42/109/42 38/102/38
f 40/101/40 43/108/43 42/109/42
f 40/101/40 44/96/44 43/108/43
f 40/101/40 46/97/46 44/96/44
f 41/103/41 42/109/42 25/107/25
f 42/109/42 45/114/45 25/107/25
f 43/108/43 45/114/45 42/109/42
f 43/108/43 82/112/82 45/114/45
f 43/108/43 88/90/88 7/94/7
f 43/108/43 92/100/92 82/112/82
f 44/96/44 88/90/88 43/108/43
f 45/114/45 57/113/57 25/107/25
f 45/114/45 70/121/70 54/122/54
f 45/114/45 82/112/82 70/121/70
f 46/97/46 47/83/47 44/96/44
f 47/83/47 88/90/88 44/96/44
f 47/83/47 104/80/104 88/90/88
f 48/117/48 51/110/51 49/106/49
f 48/117/48 52/118/52 51/110/51
f 48/117/48 53/124/53 52/118/52
f 49/106/49 50/115/50 48/117/48
f 49/106/49 58/76/58 19/104/19
f 49/106/49 59/77/59 58/76/58
f 50/115/50 53/124/53 48/117/48
f 50/115/50 54/123/54 53/124/53
f 50/115/50 57/113/57 54/123/54
f 51/110/51 59/77/59 49/106/49
f 51/110/51 107/91/107 59/77/59
f 52/118/52 75/111/75 51/110/51
f 53/124/53 56/127/56 52/118/52
f 54/123/54 55/128/55 53/124/53
f 54/122/54 57/113/57 45/114/45
f 54/122/54 70/121/70 55/126/55
f 55/128/55 56/127/56 53/124/53
f 55/128/55 71/137/71 56/127/56
f 55/126/55 80/120/80 71/130/71
f 56/127/56 75/111/75 52/118/52
f 58/76/58 60/106/60 17/104/17
f 59/77/59 60/106/60 58/76/58
f 59/77/59 61/110/61 60/106/60
f 59/77/59 107/91/107 61/110/61
f 60/106/60 63/115/63 17/104/17
f 61/110/61 62/117/62 60/106/60
f 61/110/61 65/118/65 62/117/62
f 61/110/61 75/111/75 65/118/65
f 61/110/61 107/91/107 75/111/75
f 62/117/62 63/115/63 60/106/60
f 62/117/62 64/124/64 63/115/63
f 62/117/62 65/118/65 64/124/64
f 63/115/63 69/113/69 17/104/17
f 64/124/64 66/123/66 63/115/63
f 64/124/64 67/128/67 66/123/66
f 64/124/64 68/127/68 67/128/67
f 65/118/65 68/127/68 64/124/64
f 65/118/65 75/111/75 68/127/68
f 66/123/66 69/113/69 63/115/63
f 66/122/66 83/121/83 35/114/35
f 67/126/67 83/121/83 66/122/66
f 68/127/68 73/125/73 72/131/72
f 68/127/68 74/137/74 67/128/67
f 68/127/68 75/111/75 73/125/73
f 70/121/70 80/120/80 55/126/55
f 70/121/70 81/116/81 80/120/80
f 70/121/70 82/112/82 81/116/81
f 71/137/71 72/131/72 56/127/56
f 71/138/71 74/137/74 72/131/72
f 71/140/71 76/129/76 74/130/74
f 71/140/71 77/139/77 76/129/76
f 71/130/71 87/119/87 77/129/77
f 72/131/72 73/125/73 56/127/56
f 72/131/72 74/137/74 68/127/68
f 73/125/73 75/111/75 56/127/56
f 74/130/74 78/120/78 67/126/67
f 74/130/74 79/119/79 78/120/78
f 75/111/75 107/91/107 51/110/51
f 76/129/76 79/119/79 74/130/74
f 77/130/77 87/119/87 99/133/99 100/133/100 79/132/79 76/129/76
f 78/120/78 83/121/83 67/126/67
f 78/120/78 84/116/84 83/121/83
f 78/120/78 85/89/85 84/116/84
f 79/119/79 85/89/85 78/120/78
f 79/119/79 100/88/100 85/89/85
f 80/120/80 87/119/87 71/130/71
f 81/116/81 86/89/86 80/120/80
f 81/116/81 94/95/94 86/89/86
f 82/112/82 92/100/92 81/116/81
f 83/121/83 101/112/101 35/114/35
f 84/116/84 101/112/101 83/121/83
f 84/9/84 103/35/103 101/13/101
f 85/50/85 99/88/99 86/89/86
f 85/50/85 100/49/100 99/88/99
f 85/50/85 102/39/102 84/9/84
f 86/89/86 87/119/87 80/120/80
f 86/89/86 96/85/96 85/50/85
f 86/89/86 99/88/99 87/119/87
f 88/90/88 89/81/89 7/94/7
f 88/90/88 90/51/90 89/81/89
f 88/90/88 91/73/91 90/51/90
f 88/90/88 104/80/104 91/73/91
f 89/81/89 93/79/93 7/94/7
f 89/81/89 109/68/109 93/79/93
f 90/51/90 105/64/105 37/62/37
f 90/51/90 106/69/106 105/64/105
f 90/51/90 108/63/108 89/81/89
f 91/73/91 106/69/106 90/51/90
f 92/100/92 94/95/94 81/116/81
f 93/79/93 109/68/109 9/71/9
f 94/95/94 96/85/96 86/89/86
f 95/82/95 96/85/96 94/95/94
f 95/82/95 97/61/97 96/85/96
f 96/85/96 98/57/98 85/50/85
f 97/61/97 98/57/98 96/85/96
f 97/61/97 102/39/102 98/57/98
f 98/57/98 102/39/102 85/50/85
f 101/13/101 103/35/103 33/28/33
f 102/39/102 103/35/103 84/9/84
f 104/80/104 106/69/106 91/73/91
f 105/64/105 106/69/106 104/80/104
f 108/63/108 109/68/109 89/81/89
f 110/20/110 117/18/117 111/6/111
f 110/21/110 120/27/120 113/56/113
f 111/6/111 112/5/112 110/21/110
f 111/22/111 119/15/119 121/55/121 112/8/112
f 112/5/112 120/27/120 110/21/110
f 112/5/112 121/4/121 120/27/120
f 113/56/113 114/53/114 110/21/110
f 113/56/113 116/65/116 114/53/114
f 113/56/113 118/16/118 116/65/116
f 113/56/113 120/27/120 118/16/118
f 114/53/114 115/54/115 110/20/110
f 114/53/114 116/65/116 115/66/115
f 115/54/115 117/18/117 110/20/110
f 115/54/115 118/17/118 117/18/117
f 116/52/116 118/17/118 115/54/115
f 117/18/117 119/7/119 111/6/111
f 118/17/118 119/7/119 117/18/117
f 118/12/118 127/25/127 119/3/119
f 119/3/119 123/26/123 121/4/121
f 119/3/119 127/25/127 123/26/123
f 120/27/120 122/14/122 118/16/118
f 121/4/121 122/14/122 120/27/120
f 121/4/121 123/26/123 122/14/122
f 122/24/122 126/46/126 124/43/124
f 122/24/122 127/25/127 118/12/118
f 123/26/123 125/47/125 122/14/122
f 123/26/123 127/25/127 124/43/124
f 124/43/124 125/47/125 123/26/123
f 124/43/124 126/46/126 125/47/125
f 124/43/124 127/25/127 122/24/122
f 125/47/125 126/48/126 122/14/122
f 128/53/128 131/65/131 129/56/129
f 128/53/128 132/66/132 131/65/131
f 129/56/129 130/21/130 128/53/128
f 129/56/129 134/27/134 130/21/130
f 129/56/129 137/16/137 134/27/134
f 130/20/130 132/54/132 128/53/128
f 130/20/130 133/18/133 132/54/132
f 130/20/130 136/6/136 133/18/133
f 131/65/131 137/16/137 129/56/129
f 132/54/132 137/17/137 131/52/131
f 133/18/133 137/17/137 132/54/132
f 133/18/133 139/7/139 137/17/137
f 134/27/134 135/5/135 130/21/130
f 134/27/134 138/4/138 135/5/135
f 134/27/134 140/14/140 138/4/138
f 135/5/135 136/6/136 130/21/130
f 135/2/135 138/1/138 139/19/139 136/8/136
f 136/6/136 139/7/139 133/18/133
f 137/16/137 140/14/140 134/27/134
f 137/12/137 144/25/144 140/24/140
f 138/4/138 141/26/141 139/3/139
f 139/3/139 144/25/144 137/12/137
f 140/14/140 141/26/141 138/4/138
f 140/14/140 142/47/142 141/26/141
f 140/24/140 144/25/144 143/43/143
f 140/14/140 145/48/145 142/47/142
f 141/26/141 144/25/144 139/3/139
f 142/47/142 143/43/143 141/26/141
f 142/47/142 145/46/145 143/43/143
f 143/43/143 144/25/144 141/26/141
f 143/43/143 145/46/145 140/24/140
f 146/135/146 148/143/148 147/144/147
f 146/135/146 150/142/150 148/143/148
f 147/42/147 148/23/148 150/42/150 151/43/151 149/24/149 146/25/146
f 149/134/149 150/142/150 146/135/146
f 149/134/149 151/141/151 150/142/150
f 152/143/152 156/136/156 157/145/157 155/146/155 154/143/154 153/144/153
f 153/141/153 154/134/154 152/142/152
f 154/134/154 155/135/155 152/142/152
f 155/135/155 156/143/156 152/142/152
f 155/135/155 157/144/157 156/143/156
