# Exported from Wings 3D 0.98.35
mtllib pistol.mtl
o cube1
#94 vertices, 162 faces
v -0.35335405 0.40311734 -0.41348880
v -0.35335405 2.50394138 -0.41348880
v 0.35335405 2.50394138 -0.41348880
v 0.35335405 0.40311734 -0.41348880
v -0.35335405 -1.67799077 -2.28148880
v -0.35335405 2.50394138 -2.28148880
v 0.35335405 2.50394138 -2.28148880
v 0.35335405 -1.67799077 -2.28148880
v -0.35335405 3.55875007 -1.26171797
v 0.35335405 3.55875007 -1.26171797
v 0.35335405 3.55875007 -2.28148880
v -0.35335405 3.55875007 -2.28148880
v 0.35335405 -1.67799077 -1.15818356
v -0.35335405 -1.67799077 -1.15818356
v 0.35335405 -2.86392498 -1.15818356
v -0.35335405 -2.86392498 -1.15818356
v -0.35335405 -2.86392498 -2.28148880
v 0.35335405 -2.86392498 -2.28148880
v -0.35335405 0.40311734 -2.28148880
v 0.35335405 0.40311734 -2.28148880
v 0.35335405 -2.27095787 -2.28148880
v -0.35335405 -2.27095787 -2.28148880
v -0.22402647 -2.61161283 -2.59548890
v 0.22402647 -2.61161283 -2.59548890
v 0.22402647 -2.75541200 -2.59548890
v -0.22402647 -2.75541200 -2.59548890
v -0.30600000 1.93530432 1.95668782
v -0.30600000 3.09288912 1.95668782
v 0.30600000 3.09288912 1.95668782
v 0.30600000 1.93530432 1.95668782
v -0.30600000 1.32891930 -0.50745839
v -0.30600000 2.48650410 -0.50745839
v 0.30600000 2.48650410 -0.50745839
v 0.30600000 1.32891930 -0.50745839
v -0.23256000 3.07791218 1.95668782
v -0.23256000 2.00874432 1.95668782
v 0.23256000 2.00874432 1.95668782
v 0.23256000 3.07791218 1.95668782
v -0.23256000 3.23076815 2.59548890
v -0.23256000 2.16160029 2.59548890
v 0.23256000 2.16160029 2.59548890
v 0.23256000 3.23076815 2.59548890
v -0.30600000 1.54882407 0.42270945
v -0.30600000 1.49384788 0.19016749
v 0.30600000 1.54882407 0.42270945
v 0.30600000 1.49384788 0.19016749
v 0.10200000 1.54882407 0.42270945
v -0.10200000 1.54882407 0.42270945
v 0.10200000 1.49384788 0.19016749
v -0.10200000 1.49384788 0.19016749
v 0.10200000 1.01791019 0.13666050
v -0.10200000 1.01791019 0.13666050
v -0.10200000 0.87397634 0.32739904
v 0.10200000 0.87397634 0.32739904
v 0.10200000 0.76199706 -9.4583860e-2
v -0.10200000 0.76199706 -9.4583860e-2
v -0.10200000 0.49878210 -2.9214480e-2
v 0.10200000 0.49878210 -2.9214480e-2
v -0.10200000 0.64861520 -0.43864965
v 0.10200000 0.64861520 -0.43864965
v 0.10200000 0.39497695 -0.43864965
v -0.10200000 0.39497695 -0.43864965
v -0.10200000 1.32891930 -0.50745839
v 0.10200000 1.32891930 -0.50745839
v -7.4664000e-2 1.38389550 -0.27491643
v 7.4664000e-2 1.38389550 -0.27491643
v -0.10200000 1.15387108 -0.50745839
v 0.10200000 1.15387108 -0.50745839
v 7.4664000e-2 1.23162106 -0.23881147
v -7.4664000e-2 1.23162106 -0.23881147
v -5.3907408e-2 1.20595915 7.5124548e-2
v 5.3907408e-2 1.20595915 7.5124548e-2
v 5.3907408e-2 1.33779926 -7.3142027e-2
v -5.3907408e-2 1.33779926 -7.3142027e-2
v -0.14871600 3.24865058 1.95668782
v 0.14871600 3.24865058 1.95668782
v 0.14871600 2.70157366 2.4186804e-3
v -0.14871600 2.70157366 2.4186804e-3
v 0.27187600 -2.83821068 -1.77449878
v 0.19224536 -2.83821068 -1.58225342
v -2.7533689e-17 -2.83821068 -1.50262278
v -0.19224536 -2.83821068 -1.58225342
v -0.27187600 -2.83821068 -1.77449878
v -0.19224536 -2.83821068 -1.96674415
v -9.4121904e-17 -2.83821068 -2.04637478
v 0.19224536 -2.83821068 -1.96674415
v 0.27187600 -3.55875007 -1.77449878
v 0.19224536 -3.55875007 -1.58225342
v -2.7533689e-17 -3.55875007 -1.50262278
v -0.19224536 -3.55875007 -1.58225342
v -0.27187600 -3.55875007 -1.77449878
v -0.19224536 -3.55875007 -1.96674415
v -9.4121904e-17 -3.55875007 -2.04637478
v 0.19224536 -3.55875007 -1.96674415
vt 0.0000000e+0 0.80151501
vt 1.7761690e-5 1.00000000
vt 1.6064007e-4 0.49428497
vt 6.3802257e-4 0.17228311
vt 9.8232213e-4 0.0000000e+0
vt 5.2615149e-3 0.97950970
vt 5.3057736e-3 0.97937671
vt 9.2466789e-3 0.98665117
vt 1.0866898e-2 0.39035258
vt 1.0866898e-2 0.50738075
vt 1.0866898e-2 0.39035258
vt 1.0866898e-2 0.50738075
vt 1.1266667e-2 0.30516934
vt 1.1266667e-2 0.41056399
vt 1.2738678e-2 0.98619134
vt 1.4088051e-2 0.39288259
vt 1.4088051e-2 0.50600630
vt 1.7196739e-2 0.93805101
vt 1.9732994e-2 0.93392405
vt 1.9842552e-2 0.88381190
vt 2.0865154e-2 0.87785300
vt 2.0946318e-2 0.87795587
vt 2.3273753e-2 0.88331217
vt 2.5282601e-2 0.43820175
vt 2.5283505e-2 0.43796323
vt 2.7930354e-2 0.93259654
vt 2.7961511e-2 0.93271568
vt 5.0010960e-2 0.41122739
vt 5.0011865e-2 0.41098887
vt 5.4194748e-2 0.88333791
vt 5.5469537e-2 0.93396942
vt 5.5579095e-2 0.88385726
vt 5.5630996e-2 0.97962555
vt 5.5660181e-2 0.97949253
vt 5.8628424e-2 0.90378661
vt 5.8720892e-2 0.90389725
vt 6.0023601e-2 0.93808665
vt 6.0525910e-2 0.40962532
vt 6.0525910e-2 0.49504135
vt 6.2235275e-2 0.98625417
vt 6.7753321e-2 0.98669987
vt 6.9908293e-2 0.71623978
vt 7.1694226e-2 0.93899124
vt 7.1738485e-2 0.93911229
vt 7.6792591e-2 0.72135997
vt 8.3811496e-2 0.81084908
vt 8.9633860e-2 0.80874296
vt 9.8537081e-2 0.82169039
vt 0.10329738 0.49433930
vt 0.10345430 0.80149623
vt 0.10348300 0.17240245
vt 0.10365308 0.99998911
vt 0.10365308 1.0306776e-4
vt 0.10602243 0.45342567
vt 0.10602334 0.45318715
vt 0.10627124 0.49530075
vt 0.10627214 0.49506223
vt 0.10768905 0.59548567
vt 0.11480681 0.71577363
vt 0.11628462 0.40962532
vt 0.11628462 0.49504135
vt 0.11720644 9.4152703e-3
vt 0.11720644 4.2879857e-2
vt 0.11720644 7.6344444e-2
vt 0.11720644 0.10980903
vt 0.11720644 0.14327362
vt 0.11720644 9.4152703e-3
vt 0.11720644 4.2879857e-2
vt 0.11720644 7.6344444e-2
vt 0.11720644 0.10980903
vt 0.11720644 0.14327362
vt 0.11992700 0.70888933
vt 0.12149730 1.6177199e-2
vt 0.12149730 0.14370048
vt 0.12284617 0.81811807
vt 0.12764808 0.80315663
vt 0.12963420 0.59426679
vt 0.13383020 0.80349864
vt 0.14352111 0.59426679
vt 0.15247157 0.44762806
vt 0.15247247 0.44738954
vt 0.15412249 0.76772238
vt 0.15412249 0.76772238
vt 0.15644019 0.40962532
vt 0.15644019 0.49504135
vt 0.15699305 0.76837844
vt 0.16258698 0.59426679
vt 0.16778964 0.73079374
vt 0.17578883 0.48432652
vt 0.17578973 0.48408800
vt 0.17647388 0.59426679
vt 0.18657953 0.73079374
vt 0.19253942 0.41106474
vt 0.19254032 0.41082622
vt 0.19498376 0.59517829
vt 0.19738063 0.76837844
vt 0.19861595 0.49504135
vt 0.19861595 0.40962532
vt 0.22008919 0.43756523
vt 0.22009009 0.43732671
vt 0.22456772 0.70239656
vt 0.22878009 0.71865117
vt 0.22878009 0.71865117
vt 0.22946720 0.99725116
vt 0.22946720 0.99725116
vt 0.22946720 0.87577106
vt 0.23480084 0.39288259
vt 0.23480084 0.50600630
vt 0.23628866 0.39035258
vt 0.23628866 0.50738075
vt 0.23628866 0.39035258
vt 0.23628866 0.50738075
vt 0.23639218 0.30516934
vt 0.23639218 0.41056399
vt 0.23796990 0.30516934
vt 0.23796990 0.41056399
vt 0.24141721 0.76741500
vt 0.24141721 0.76741500
vt 0.36608835 0.87577106
vt 0.36608835 0.87577106
vt 0.36608835 0.99725116
vt 0.50869466 0.19280957
vt 0.50869466 0.27841201
vt 0.51462634 0.19133884
vt 0.51462634 0.28169512
vt 0.51462634 0.28169512
vt 0.52216472 0.74761047
vt 0.52845680 0.79930285
vt 0.54803321 5.8684958e-2
vt 0.54803321 0.14370048
vt 0.54803321 1.6177199e-2
vt 0.54803321 0.10119272
vt 0.55426757 0.70660927
vt 0.56945801 0.83140570
vt 0.57824585 0.19280957
vt 0.57824585 0.27841201
vt 0.60198123 0.28169512
vt 0.60595995 0.70031718
vt 0.61246250 1.6177199e-2
vt 0.61246250 0.14370048
vt 0.61246250 5.8684958e-2
vt 0.61246250 0.10119272
vt 0.62115038 0.82511362
vt 0.64696115 0.73242004
vt 0.65325324 0.78411241
vt 0.67316181 0.83422012
vt 0.67316181 0.83422012
vt 0.67316181 0.88751510
vt 0.67316181 0.88751510
vt 0.67464165 0.19133884
vt 0.67464165 0.19133884
vt 0.71229760 0.19280957
vt 0.71229760 0.27841201
vt 0.73129162 0.88751510
vt 0.73129162 0.88751510
vt 0.74132107 6.4380998e-2
vt 0.74132107 9.5496677e-2
vt 0.76906698 0.0000000e+0
vt 0.76906698 0.16396201
vt 0.76906698 0.16396201
vt 0.76906698 0.31281173
vt 0.78942142 0.83422012
vt 0.78942142 0.83422012
vt 0.78942142 0.88751510
vt 0.78942142 0.88751510
vt 0.80575035 1.6177199e-2
vt 0.80575035 5.8684958e-2
vt 0.80575035 0.10119272
vt 0.80575035 0.14370048
vt 0.83561549 0.19280957
vt 0.83561549 0.27841201
vt 0.86512595 0.19280957
vt 0.86512595 0.27841201
vt 0.87222085 0.0000000e+0
vt 0.87222085 0.16396201
vt 0.87222085 0.31281173
vt 0.87304766 0.21948924
vt 0.87304766 0.25076642
vt 0.88001479 0.22042674
vt 0.88001479 0.25010489
vt 0.88597134 9.4152703e-3
vt 0.88597134 4.2879857e-2
vt 0.88597134 7.6344444e-2
vt 0.88597134 0.10980903
vt 0.88597134 0.14327362
vt 0.88597134 9.4152703e-3
vt 0.88597134 4.2879857e-2
vt 0.88597134 7.6344444e-2
vt 0.88597134 0.10980903
vt 0.88597134 0.14327362
vt 0.88696278 0.19280957
vt 0.88696278 0.27841201
vt 0.94290902 0.73541495
vt 0.94290902 0.88996065
vt 0.94290902 0.94439663
vt 0.94290902 0.82324999
vt 0.99343681 0.88751510
vt 0.99343681 0.79888823
vt 0.99343681 0.88751510
vt 0.99343681 0.79888823
vt 0.99626876 0.88996065
vt 0.99626876 0.82324999
vt 0.99626876 0.94439663
vt 0.99626876 0.73541495
vn -0.71233174 -0.11999758 0.69150855
vn -0.62238124 0.26001726 0.73826324
vn 0.84654703 0.17683441 0.50208338
vn 0.45253640 -0.15246624 0.87861531
vn -0.44721360 0.0000000e+0 -0.89442719
vn -0.83205029 0.0000000e+0 -0.55470020
vn 0.60000000 0.0000000e+0 -0.80000000
vn 0.70710678 0.0000000e+0 -0.70710678
vn -0.74261061 0.60399015 0.28935340
vn 0.48488108 0.78874014 0.37786153
vn 0.57735027 0.57735027 -0.57735027
vn -0.33333333 0.66666667 -0.66666667
vn 0.89705334 -7.5557652e-2 0.43541514
vn -0.71233174 -0.11999758 0.69150855
vn 0.57735027 -0.57735027 0.57735027
vn -0.81649658 -0.40824829 0.40824829
vn -0.56697398 -0.77412426 -0.28155308
vn 0.78763562 -0.53770355 -0.30084052
vn -0.80000000 5.7117437e-18 -0.60000000
vn 0.80000000 5.7117437e-18 -0.60000000
vn 0.69298911 0.23934743 -0.68005801
vn -0.87020812 0.15027803 -0.46920607
vn -0.38419276 0.28160960 -0.87925648
vn 0.58149068 0.21311354 -0.78514407
vn 0.25041700 -0.51194292 -0.82170906
vn -0.42816253 -0.43765955 -0.79065224
vn -0.44721360 -0.87043295 0.20578260
vn -0.84170431 0.51384407 -0.16582561
vn 0.74891662 0.62558063 -0.21856985
vn 0.44721360 -0.87043295 0.20578260
vn -0.62812783 0.61088241 0.48195240
vn -0.53718181 -0.52243334 0.66219265
vn 0.53718181 -0.52243334 0.66219265
vn 0.62812783 0.61088241 0.48195240
vn -0.70711522 -0.68732638 0.16604372
vn -0.55470020 -0.80972940 0.19143142
vn 0.83205717 -0.53885975 0.13157140
vn 0.44721360 -0.87043295 0.20578260
vn 0.36557197 -0.76138225 0.53540097
vn -0.21825806 -0.87785764 0.42629730
vn 0.33378110 -0.93719067 -0.10131052
vn -0.39033848 -0.90605896 -0.16338001
vn 0.72431258 0.28326478 -0.62859554
vn -0.72431258 0.28326478 -0.62859554
vn -0.72413901 -0.30007446 0.62094928
vn 0.72413901 -0.30007446 0.62094928
vn 0.71898017 0.58244620 -0.37924127
vn -0.71898017 0.58244620 -0.37924127
vn -0.72113087 -0.59791219 0.34995898
vn 0.72113087 -0.59791219 0.34995898
vn -0.70710678 0.67158165 -0.22130993
vn 0.70710678 0.67158165 -0.22130993
vn 0.70710678 -0.68542084 0.17377650
vn -0.70710678 -0.68542084 0.17377650
vn -0.69659921 -0.66516844 0.26888748
vn 0.69377956 -0.66987181 0.26446490
vn 0.71734019 -0.68216482 0.14168350
vn -0.71438217 -0.68784942 0.12853518
vn -0.81445236 -0.13614506 0.56403180
vn 0.82668012 -0.13970553 0.54505261
vn 0.53922656 0.69889696 0.46986994
vn -0.30028025 0.87401105 0.38201629
vn 0.10305525 0.94871923 -0.29885021
vn -0.10310383 0.93857632 -0.32930849
vn 1.00000000 0.0000000e+0 -3.6050902e-16
vn 0.70710678 0.0000000e+0 0.70710678
vn -2.7038177e-16 0.0000000e+0 1.00000000
vn -0.70710678 0.0000000e+0 0.70710678
vn -1.00000000 0.0000000e+0 -2.1029693e-16
vn -0.70710678 0.0000000e+0 -0.70710678
vn 0.0000000e+0 0.0000000e+0 -1.00000000
vn 0.70710678 0.0000000e+0 -0.70710678
vn 0.96528366 -0.26120387 -9.4248231e-16
vn 0.37082648 -0.85145490 0.37082648
vn -1.0495979e-16 -0.63026247 0.77638213
vn -0.47984149 -0.73450956 0.47984149
vn -0.96528366 -0.26120387 1.7399673e-16
vn -0.37082648 -0.85145490 -0.37082648
vn 0.0000000e+0 -0.63026247 -0.77638213
vn 0.47984149 -0.73450956 -0.47984149
vn -0.44721360 -0.86732317 0.21851891
vn -0.44721360 -0.86732317 0.21851891
vn -0.44721360 -0.86732317 0.21851891
vn -5.2237783e-15 0.0000000e+0 1.00000000
vn -5.2237783e-15 0.0000000e+0 1.00000000
vn -1.8058202e-15 0.0000000e+0 1.00000000
vn -1.8058202e-15 0.0000000e+0 1.00000000
vn -0.96599984 0.25105287 -6.1779897e-2
vn -0.96599984 0.25105287 -6.1779897e-2
vn -0.96599984 0.25105287 -6.1779897e-2
vn -1.8058202e-15 0.0000000e+0 1.00000000
vn 0.96599984 0.25105287 -6.1779897e-2
vn -2.5150480e-15 0.0000000e+0 1.00000000
vn 0.96599984 0.25105287 -6.1779897e-2
vn -2.5150480e-15 0.0000000e+0 1.00000000
vn 0.96599984 0.25105287 -6.1779897e-2
vn 0.31622777 -0.91993515 0.23177430
vn 2.8278845e-15 0.0000000e+0 1.00000000
vn 2.8278845e-15 0.0000000e+0 1.00000000
vn 2.8278845e-15 0.0000000e+0 1.00000000
vn 0.31622777 -0.91993515 0.23177430
vn 0.31622777 -0.91993515 0.23177430
vn 0.31622777 -0.91993515 0.23177430
vn 2.8278845e-15 0.0000000e+0 1.00000000
vn 1.6766986e-15 0.0000000e+0 1.00000000
vn 1.6766986e-15 0.0000000e+0 1.00000000
vn 1.6766986e-15 0.0000000e+0 1.00000000
vn -0.70710678 0.68769297 -0.16455510
vn -0.70710678 0.68769297 -0.16455510
vn -2.6118892e-15 0.0000000e+0 1.00000000
vn -2.6118892e-15 0.0000000e+0 1.00000000
vn -0.70710678 -0.68769297 0.16455510
vn -0.70710678 -0.68769297 0.16455510
vn -2.6118892e-15 0.0000000e+0 1.00000000
vn -2.6118892e-15 0.0000000e+0 1.00000000
vn -0.70710678 -0.68769297 0.16455510
vn -0.70710678 -0.68769297 0.16455510
vn 5.6557690e-15 0.0000000e+0 1.00000000
vn 5.6557690e-15 0.0000000e+0 1.00000000
vn 0.70710678 -0.68769297 0.16455510
vn 0.70710678 -0.68769297 0.16455510
vn 1.2562884e-15 0.0000000e+0 1.00000000
vn 0.70710678 0.68769297 -0.16455510
vn 0.70710678 0.68769297 -0.16455510
vn 1.2562884e-15 0.0000000e+0 1.00000000
vn 1.2562884e-15 0.0000000e+0 1.00000000
vn 0.70710678 0.68769297 -0.16455510
vn 1.2562884e-15 0.0000000e+0 1.00000000
vn 1.2562884e-15 0.0000000e+0 1.00000000
vn 0.70710678 0.68769297 -0.16455510
vn 0.0000000e+0 -0.97317362 0.23007194
vn -0.99316144 0.0000000e+0 0.11674909
vn 0.99428797 1.3112207e-2 0.10592212
vn 0.0000000e+0 -0.97317362 0.23007194
vn 0.99428797 1.3112207e-2 0.10592212
vn -0.78391404 -0.53914758 0.30789391
vn -0.78391404 -0.53914758 0.30789391
vn -0.78391404 -0.53914758 0.30789391
vn -0.78391404 -0.53914758 0.30789391
vn -0.78391404 -0.53914758 0.30789391
vn -0.78391404 -0.53914758 0.30789391
vn -0.78391404 -0.53914758 0.30789391
vn -0.78391404 -0.53914758 0.30789391
vn -0.78391404 -0.53914758 0.30789391
vn 0.50566853 -0.72879753 0.46168550
vn 0.50566853 -0.72879753 0.46168550
vn 0.50566853 -0.72879753 0.46168550
vn 0.50566853 -0.72879753 0.46168550
vn 0.50566853 -0.72879753 0.46168550
vn 0.50566853 -0.72879753 0.46168550
vn 0.50566853 -0.72879753 0.46168550
vn 0.50566853 -0.72879753 0.46168550
vn 0.50566853 -0.72879753 0.46168550
vn -0.28918996 0.92343463 -0.25226503
vn 1.6766986e-15 0.0000000e+0 1.00000000
vn -0.28918996 0.92343463 -0.25226503
vn 1.6766986e-15 0.0000000e+0 1.00000000
vn 1.6766986e-15 0.0000000e+0 1.00000000
vn -0.28918996 0.92343463 -0.25226503
vn -0.28918996 0.92343463 -0.25226503
vn -2.5150480e-15 0.0000000e+0 1.00000000
vn -2.5150480e-15 0.0000000e+0 1.00000000
vn 0.38467965 0.89099973 -0.24112455
vn 0.38467965 0.89099973 -0.24112455
vn 0.38467965 0.89099973 -0.24112455
g cube1_default
usemtl default
f 1/3/1 4/49/4 2/1/2
f 1/3/1 14/4/14 4/49/4
f 2/1/2 4/49/4 3/50/3
f 3/50/3 10/52/10 2/1/2
f 4/49/4 14/4/14 13/51/13
f 9/2/9 2/1/2 10/52/10
f 10/175/10 12/161/12 9/160/9
f 11/176/11 12/161/12 10/175/10
f 14/4/14 15/53/15 13/51/13
f 15/53/15 14/4/14 16/5/16
f 16/174/16 17/175/17 15/158/15
f 18/159/18 15/158/15 17/175/17
g cube1_pistol
usemtl pistol
f 1/200/1 19/197/19 14/162/14
f 2/150/2 9/137/9 6/124/6
f 2/106/2 19/121/19 1/119/1
f 3/106/3 20/121/20 7/104/7
f 4/120/4 20/121/20 3/106/3
f 5/164/5 14/162/14 19/197/19
f 5/171/5 20/152/20 8/170/8
f 5/171/5 21/172/21 22/173/22
f 5/164/5 22/154/22 14/162/14
f 6/136/6 12/123/12 7/135/7
f 6/105/6 19/121/19 2/106/2
f 7/124/7 10/137/10 3/151/3
f 7/135/7 19/153/19 6/136/6
f 8/165/8 20/199/20 13/163/13
f 8/170/8 21/172/21 5/171/5
f 10/137/10 7/124/7 11/125/11
f 11/122/11 7/135/7 12/123/12
f 12/126/12 6/124/6 9/137/9
f 13/163/13 20/199/20 4/198/4
f 13/163/13 21/155/21 8/165/8
f 14/162/14 22/154/22 16/146/16
f 15/147/15 21/155/21 13/163/13
f 16/146/16 22/154/22 17/148/17
f 17/192/17 25/179/25 18/191/18
f 18/149/18 21/155/21 15/147/15
f 18/191/18 24/177/24 21/172/21
f 19/153/19 20/152/20 5/171/5
f 20/152/20 19/153/19 7/135/7
f 21/172/21 23/178/23 22/173/22
f 22/173/22 23/178/23 17/192/17
f 23/178/23 21/172/21 24/177/24
f 24/177/24 18/191/18 25/179/25
f 24/177/24 25/179/25 23/178/23
f 25/179/25 17/192/17 26/180/26
f 26/180/26 17/192/17 23/178/23
f 26/180/26 23/178/23 25/179/25
f 27/42/85 36/45/115 28/46/91
f 27/73/83 48/129/40 30/74/102
f 28/58/89 43/101/35 27/95/82
f 28/77/88 75/79/159 32/86/28
f 29/78/95 38/76/129 30/72/100
f 29/58/94 45/101/37 33/83/29
f 29/78/93 76/75/161 38/76/126
f 30/72/104 36/45/114 27/42/84
f 30/95/97 45/101/37 29/58/92
f 30/74/101 47/132/39 45/130/37
f 31/118/27 44/102/36 32/82/28
f 31/166/27 65/156/141 44/139/36
f 32/82/28 43/101/35 28/58/90
f 32/86/28 78/88/64 33/96/29
f 33/83/29 46/103/38 34/117/30
f 33/96/29 76/87/164 29/91/96
f 34/169/30 66/157/148 64/168/134
f 35/47/105 28/46/86 36/45/110
f 35/110/108 39/12/31 38/109/130
f 35/47/107 75/48/157 28/46/87
f 36/45/111 30/72/98 37/59/118
f 36/14/117 39/115/31 35/116/109
f 37/59/119 30/72/99 38/76/122
f 37/112/121 41/10/33 36/111/116
f 38/114/127 41/13/33 37/14/120
f 38/76/125 75/48/155 35/47/106
f 39/115/31 36/14/112 40/13/32
f 40/9/32 36/111/113 41/10/33
f 40/107/32 41/108/33 39/16/31
f 41/13/33 38/114/123 42/113/34
f 42/11/34 38/109/124 39/12/31
f 42/17/34 39/16/31 41/108/33
f 43/101/35 32/82/28 44/102/36
f 43/131/35 48/129/40 27/73/81
f 43/131/35 50/141/42 48/129/40
f 44/139/36 50/141/42 43/131/35
f 44/139/36 65/156/140 50/141/42
f 45/130/37 47/132/39 46/140/38
f 46/103/38 33/83/29 45/101/37
f 46/140/38 47/132/39 49/142/41
f 46/140/38 66/157/149 34/169/30
f 47/132/39 30/74/103 48/129/40
f 48/25/40 50/29/42 53/57/45
f 48/204/40 53/202/45 47/193/39
f 49/28/41 47/24/39 51/54/43
f 49/38/41 51/60/43 50/39/42
f 49/142/41 66/157/146 46/140/38
f 50/141/42 66/157/150 49/142/41
f 51/60/43 56/85/48 52/61/44
f 52/61/44 50/39/42 51/60/43
f 52/55/44 53/57/45 50/29/42
f 53/202/45 58/194/50 54/196/46
f 54/196/46 47/193/39 53/202/45
f 54/56/46 51/54/43 47/24/39
f 55/80/47 51/54/43 58/89/50
f 55/84/47 60/98/52 56/85/48
f 56/85/48 51/60/43 55/84/47
f 56/81/48 53/57/45 52/55/44
f 56/81/48 62/100/54 57/90/49
f 57/90/49 53/57/45 56/81/48
f 57/201/49 62/203/54 58/194/50
f 58/89/50 51/54/43 54/56/46
f 58/194/50 53/202/45 57/201/49
f 58/89/50 60/93/52 55/80/47
f 59/97/51 56/85/48 60/98/52
f 59/94/51 62/100/54 56/81/48
f 60/93/52 58/89/50 61/99/53
f 61/195/53 58/194/50 62/203/54
f 63/167/131 65/156/136 31/166/27
f 63/33/132 67/6/55 65/44/143
f 65/156/137 66/157/145 50/141/42
f 65/15/144 74/19/62 66/40/153
f 66/43/152 69/26/57 64/34/135
f 66/43/151 73/35/61 69/26/57
f 68/7/56 64/34/133 69/26/57
f 68/8/56 69/18/57 67/41/55
f 69/18/57 71/30/59 70/37/58
f 70/27/58 65/44/138 67/6/55
f 70/37/58 67/41/55 69/18/57
f 70/27/58 71/22/59 65/44/142
f 71/30/59 69/18/57 72/23/60
f 72/21/60 69/26/57 73/35/61
f 72/32/60 73/31/61 71/20/59
f 73/31/61 66/40/147 74/19/62
f 74/36/62 65/44/139 71/22/59
f 74/19/62 71/20/59 73/31/61
f 75/48/158 38/76/128 76/75/162
f 76/87/165 33/96/29 77/92/63
f 76/87/163 77/92/63 75/79/160
f 77/92/63 33/96/29 78/88/64
f 78/88/64 32/86/28 75/79/156
f 78/88/64 75/79/154 77/92/63
f 79/62/65 87/181/73 86/63/72
f 80/70/66 87/190/73 79/71/65
f 80/70/66 89/188/75 88/189/74
f 81/69/67 89/188/75 80/70/66
f 82/68/68 89/188/75 81/69/67
f 82/68/68 91/186/77 90/187/76
f 83/67/69 91/186/77 82/68/68
f 84/65/70 91/185/77 83/66/69
f 85/64/71 93/183/79 84/65/70
f 86/63/72 93/183/79 85/64/71
f 88/189/74 87/190/73 80/70/66
f 88/144/74 94/133/80 87/138/73
f 89/145/75 93/127/79 88/144/74
f 90/187/76 89/188/75 82/68/68
f 90/143/76 92/128/78 89/145/75
f 91/185/77 84/65/70 92/184/78
f 91/134/77 92/128/78 90/143/76
f 92/184/78 84/65/70 93/183/79
f 93/183/79 86/63/72 94/182/80
f 93/127/79 89/145/75 92/128/78
f 94/182/80 86/63/72 87/181/73
f 94/133/80 88/144/74 93/127/79
